<svg width="15" height="15" viewBox="0 0 15 15" fill="none" xmlns="http://www.w3.org/2000/svg">
<path fill-rule="evenodd" clip-rule="evenodd" d="M7.5 0C3.36 0 0 3.36 0 7.5C0 11.64 3.36 15 7.5 15C11.64 15 15 11.64 15 7.5C15 3.36 11.64 0 7.5 0ZM3.80255 12.21C4.12505 11.535 6.09005 10.875 7.50005 10.875C8.91005 10.875 10.8826 11.535 11.1976 12.21C10.1776 13.02 8.89505 13.5 7.50005 13.5C6.10505 13.5 4.82255 13.02 3.80255 12.21ZM7.5 9.375C8.595 9.375 11.1975 9.8175 12.27 11.1225C13.035 10.1175 13.5 8.865 13.5 7.5C13.5 4.1925 10.8075 1.5 7.5 1.5C4.1925 1.5 1.5 4.1925 1.5 7.5C1.5 8.865 1.965 10.1175 2.73 11.1225C3.8025 9.8175 6.405 9.375 7.5 9.375ZM7.5 3C6.045 3 4.875 4.17 4.875 5.625C4.875 7.08 6.045 8.25 7.5 8.25C8.955 8.25 10.125 7.08 10.125 5.625C10.125 4.17 8.955 3 7.5 3ZM6.375 5.625C6.375 6.2475 6.8775 6.75 7.5 6.75C8.1225 6.75 8.625 6.2475 8.625 5.625C8.625 5.0025 8.1225 4.5 7.5 4.5C6.8775 4.5 6.375 5.0025 6.375 5.625Z" fill="#292929"/>
</svg>
