<svg width="11" height="6" viewBox="0 0 11 6" fill="none" xmlns="http://www.w3.org/2000/svg">
    <path d="M0.38218 1.18769C0.380625 0.955113 0.486256 0.73157 0.675739 0.566441C0.865809 0.400792 1.12454 0.307617 1.39445 0.307617C1.66436 0.307617 1.92309 0.400792 2.11316 0.566441L5.44353 3.46269L8.79415 0.680191C9.18897 0.340933 9.82662 0.340933 10.2214 0.680191C10.4131 0.844487 10.5209 1.06813 10.5209 1.30144C10.5209 1.53475 10.4131 1.7584 10.2214 1.92269L6.17237 5.30019C5.77875 5.63369 5.1488 5.63369 4.75519 5.30019L0.706108 1.80019C0.507919 1.64156 0.391294 1.42104 0.38218 1.18769Z" fill="#1A1A1A"/>
</svg>
