<svg width="9" height="9" viewBox="0 0 9 9" fill="none" xmlns="http://www.w3.org/2000/svg">
    <path d="M5.03856 0.730695L5.03856 7.11685L7.38626 5.16223C7.61524 4.97191 7.95516 5.00325 8.14549 5.23223C8.33581 5.46122 8.30447 5.80114 8.07549 5.99146L4.84472 8.68377C4.81902 8.70188 4.79202 8.71808 4.76395 8.73223C4.73703 8.73223 4.72087 8.73223 4.69395 8.76992C4.63221 8.79433 4.56649 8.80711 4.5001 8.80762C4.43372 8.80711 4.368 8.79433 4.30626 8.76992C4.27933 8.76992 4.26318 8.76992 4.23626 8.73223C4.20818 8.71808 4.18118 8.70188 4.15549 8.68377L0.924717 5.99146C0.801657 5.88896 0.730611 5.737 0.730871 5.57685C0.730625 5.45104 0.774443 5.32911 0.854717 5.23223C0.946012 5.12211 1.07737 5.05285 1.21981 5.03971C1.36225 5.02658 1.50406 5.07066 1.61395 5.16223L3.96164 7.11685L3.96164 0.730695C3.96164 0.433311 4.20272 0.192233 4.5001 0.192233C4.79749 0.192233 5.03856 0.433311 5.03856 0.730695Z" fill="white"/>
</svg>
