<svg width="9" height="9" viewBox="0 0 9 9" fill="none" xmlns="http://www.w3.org/2000/svg">
    <path d="M3.96144 8.26931L3.96144 1.88315L1.61374 3.83777C1.38476 4.02809 1.04484 3.99675 0.854513 3.76777C0.664187 3.53878 0.695527 3.19886 0.924513 3.00854L4.15528 0.316229C4.18098 0.298115 4.20798 0.281918 4.23605 0.267767C4.26297 0.267767 4.27913 0.267767 4.30605 0.230075C4.36779 0.205669 4.43351 0.19289 4.4999 0.192383C4.56628 0.19289 4.632 0.205669 4.69374 0.230075C4.72067 0.230075 4.73682 0.230075 4.76374 0.267767C4.79182 0.281918 4.81882 0.298115 4.84451 0.316229L8.07528 3.00854C8.19834 3.11104 8.26939 3.263 8.26913 3.42315C8.26937 3.54896 8.22556 3.67089 8.14528 3.76777C8.05399 3.87789 7.92263 3.94715 7.78019 3.96029C7.63775 3.97342 7.49594 3.92934 7.38605 3.83777L5.03836 1.88315L5.03836 8.26931C5.03836 8.56669 4.79728 8.80777 4.4999 8.80777C4.20251 8.80777 3.96144 8.56669 3.96144 8.26931Z" fill="white"/>
</svg>
