<svg width="15" height="15" viewBox="0 0 15 15" fill="none" xmlns="http://www.w3.org/2000/svg">
<path fill-rule="evenodd" clip-rule="evenodd" d="M12.2199 7.47437C11.965 7.93918 11.4702 8.24655 10.9079 8.24655H5.32277L4.49812 9.74592H13.4944V11.2453H4.49812C3.3586 11.2453 2.6389 10.0233 3.18617 9.01873L4.19824 7.18949L1.49937 1.49937H0V0H2.45147L3.15618 1.49937H14.2515C14.8213 1.49937 15.1812 2.11412 14.9038 2.60891L12.2199 7.47437ZM12.9769 2.99898H3.86822L5.64497 6.74741H10.9078L12.9769 2.99898ZM4.49818 11.9947C3.67353 11.9947 3.00631 12.6694 3.00631 13.4941C3.00631 14.3187 3.67353 14.9934 4.49818 14.9934C5.32284 14.9934 5.99755 14.3187 5.99755 13.4941C5.99755 12.6694 5.32284 11.9947 4.49818 11.9947ZM10.5031 13.4941C10.5031 12.6694 11.1704 11.9947 11.995 11.9947C12.8197 11.9947 13.4944 12.6694 13.4944 13.4941C13.4944 14.3187 12.8197 14.9934 11.995 14.9934C11.1704 14.9934 10.5031 14.3187 10.5031 13.4941Z" fill="#1D1D1B"/>
</svg>
