<svg width="18" height="18" viewBox="0 0 18 18" fill="none" xmlns="http://www.w3.org/2000/svg">
    <g clip-path="url(#clip0)">
        <rect width="18" height="18" fill="white" />
        <circle r="9" transform="matrix(-1 0 0 1 9 9)" fill="#7DC131" />
        <path
            d="M8.496 13V11.476H10.044V13H8.496ZM8.628 10.636C8.628 10.116 8.68 9.696 8.784 9.376C8.896 9.048 9.12 8.728 9.456 8.416C9.488 8.384 9.564 8.316 9.684 8.212C9.812 8.1 9.896 8.024 9.936 7.984C9.976 7.944 10.044 7.876 10.14 7.78C10.236 7.676 10.3 7.592 10.332 7.528C10.372 7.464 10.416 7.384 10.464 7.288C10.52 7.184 10.556 7.084 10.572 6.988C10.596 6.884 10.608 6.776 10.608 6.664C10.608 6.312 10.492 6.024 10.26 5.8C10.028 5.576 9.728 5.464 9.36 5.464C8.424 5.464 7.94 6.032 7.908 7.168H6.528C6.568 6.28 6.828 5.58 7.308 5.068C7.788 4.548 8.48 4.288 9.384 4.288C10.192 4.288 10.84 4.508 11.328 4.948C11.824 5.38 12.072 5.952 12.072 6.664C12.072 6.928 12.044 7.164 11.988 7.372C11.932 7.58 11.832 7.776 11.688 7.96C11.544 8.144 11.416 8.292 11.304 8.404C11.192 8.516 11.012 8.676 10.764 8.884C10.364 9.228 10.124 9.48 10.044 9.64C9.964 9.792 9.924 10.124 9.924 10.636H8.628Z"
            fill="white"
        />
    </g>
    <defs>
        <clipPath id="clip0">
            <rect width="18" height="18" fill="white" />
        </clipPath>
    </defs>
</svg>
