<svg width="28" height="29" viewBox="0 0 28 29" fill="none" xmlns="http://www.w3.org/2000/svg">
<circle cx="13.5" cy="13.5" r="13.5" fill="#FF2323"/>
<path d="M6.92773 8.51562C6.92773 7.64323 7.21094 6.93685 7.77734 6.39648C8.34375 5.84961 9.08594 5.57617 10.0039 5.57617C10.9349 5.57617 11.6836 5.84635 12.25 6.38672C12.8164 6.92057 13.0996 7.64648 13.0996 8.56445V9.26758C13.0996 10.1465 12.8164 10.8529 12.25 11.3867C11.6836 11.9206 10.9414 12.1875 10.0234 12.1875C9.09896 12.1875 8.35026 11.9206 7.77734 11.3867C7.21094 10.8464 6.92773 10.1204 6.92773 9.20898V8.51562ZM8.80273 9.26758C8.80273 9.6582 8.91341 9.97396 9.13477 10.2148C9.36263 10.4492 9.65885 10.5664 10.0234 10.5664C10.388 10.5664 10.6777 10.446 10.8926 10.2051C11.1074 9.96419 11.2148 9.64193 11.2148 9.23828V8.51562C11.2148 8.125 11.1074 7.80924 10.8926 7.56836C10.6777 7.32747 10.3815 7.20703 10.0039 7.20703C9.64583 7.20703 9.35612 7.32747 9.13477 7.56836C8.91341 7.80273 8.80273 8.13151 8.80273 8.55469V9.26758ZM13.7246 16.5137C13.7246 15.6348 14.0111 14.9284 14.584 14.3945C15.1569 13.8542 15.8991 13.584 16.8105 13.584C17.735 13.584 18.4805 13.8509 19.0469 14.3848C19.6198 14.9121 19.9062 15.6413 19.9062 16.5723V17.2754C19.9062 18.1478 19.6263 18.8542 19.0664 19.3945C18.5065 19.9284 17.7611 20.1953 16.8301 20.1953C15.8926 20.1953 15.1406 19.9251 14.5742 19.3848C14.0078 18.8444 13.7246 18.1283 13.7246 17.2363V16.5137ZM15.5996 17.2754C15.5996 17.6335 15.7168 17.9395 15.9512 18.1934C16.1855 18.4473 16.4785 18.5742 16.8301 18.5742C17.6243 18.5742 18.0215 18.1348 18.0215 17.2559V16.5137C18.0215 16.123 17.9108 15.8105 17.6895 15.5762C17.4681 15.3353 17.1751 15.2148 16.8105 15.2148C16.446 15.2148 16.153 15.3353 15.9316 15.5762C15.7103 15.8105 15.5996 16.1328 15.5996 16.543V17.2754ZM10.5801 18.9355L9.20312 18.1934L16.1465 7.08008L17.5234 7.82227L10.5801 18.9355Z" fill="white"/>
</svg>
