<svg width="25" height="25" viewBox="0 0 25 25" fill="none" xmlns="http://www.w3.org/2000/svg">
<path d="M24.9074 12.2041C24.7105 11.9177 19.9792 5.20819 12.4999 5.20819C6.08211 5.20819 0.363275 11.8791 0.122646 12.1635C-0.040882 12.3573 -0.040882 12.6417 0.122646 12.8364C0.363275 13.1208 6.08211 19.7918 12.4999 19.7918C18.9178 19.7918 24.6366 13.1208 24.8772 12.8364C25.0283 12.6573 25.0418 12.3979 24.9074 12.2041ZM12.4999 18.7501C7.35508 18.7501 2.46331 13.8438 1.22061 12.5C2.46126 11.1552 7.34781 6.24991 12.4999 6.24991C18.5198 6.24991 22.7689 11.149 23.8064 12.4719C22.6084 13.7729 17.6885 18.7501 12.4999 18.7501Z" fill="white"/>
<path d="M12.5 8.33319C10.202 8.33319 8.33325 10.202 8.33325 12.4999C8.33325 14.7978 10.202 16.6666 12.5 16.6666C14.7979 16.6666 16.6667 14.7978 16.6667 12.4999C16.6667 10.202 14.7979 8.33319 12.5 8.33319ZM12.5 15.625C10.777 15.625 9.37492 14.2229 9.37492 12.5C9.37492 10.777 10.777 9.37491 12.5 9.37491C14.2229 9.37491 15.625 10.777 15.625 12.5C15.625 14.2229 14.2229 15.625 12.5 15.625Z" fill="white"/>
</svg>
