<svg width="15" height="15" viewBox="0 0 15 15" fill="none" xmlns="http://www.w3.org/2000/svg">
<path fill-rule="evenodd" clip-rule="evenodd" d="M15 7.5C15 5.51088 14.2098 3.60322 12.8033 2.1967C11.3968 0.790176 9.48912 0 7.5 0C3.35786 0 0 3.35786 0 7.5C0 11.6421 3.35786 15 7.5 15C11.6421 15 15 11.6421 15 7.5ZM13.4475 6.74979H11.25C11.1263 4.98589 10.5219 3.28955 9.50249 1.84479C11.6384 2.60338 13.1645 4.50088 13.4475 6.74979ZM9.75006 8.24982H5.31006C5.46095 10.1018 6.23261 11.8486 7.50006 13.2073C8.76835 11.8429 9.55812 10.1028 9.75006 8.24982ZM5.31006 6.74993C5.48472 4.9063 6.25325 3.16921 7.50006 1.79993C8.77859 3.15452 9.57016 4.89596 9.75006 6.74993H5.31006ZM3.80251 6.75032C3.94111 4.97786 4.55517 3.27558 5.58001 1.82281C3.40526 2.55939 1.84158 4.47249 1.55251 6.75032H3.80251ZM1.55251 8.24982H3.80251C3.92602 10.0208 4.53591 11.7233 5.56501 13.1698C3.39833 12.4297 1.84172 10.5211 1.55251 8.24982ZM11.2502 8.24982C11.1082 10.0181 10.4915 11.7153 9.46518 13.1623C11.6238 12.4187 13.1733 10.5145 13.4627 8.24982H11.2502Z" fill="#292929"/>
</svg>
