<svg width="15" height="14" viewBox="0 0 15 14" fill="none" xmlns="http://www.w3.org/2000/svg">
    <path d="M11.4383 13.8749C11.325 13.8754 11.2133 13.8487 11.1125 13.797L7.49997 11.9058L3.88747 13.797C3.64815 13.9229 3.35806 13.9015 3.13978 13.7419C2.92149 13.5823 2.8131 13.3124 2.86039 13.0462L3.56872 9.05827L0.650389 6.22494C0.464845 6.03978 0.396724 5.7673 0.473305 5.51661C0.557062 5.25978 0.779605 5.07295 1.04706 5.03494L5.08456 4.44702L6.86247 0.813274C6.98082 0.568906 7.22845 0.413696 7.49997 0.413696C7.77149 0.413696 8.01912 0.568906 8.13747 0.813274L9.93664 4.43994L13.9741 5.02786C14.2416 5.06587 14.4641 5.2527 14.5479 5.50952C14.6245 5.76021 14.5563 6.0327 14.3708 6.21786L11.4525 9.05119L12.1608 13.0391C12.2124 13.3103 12.1019 13.5867 11.8775 13.7474C11.7492 13.8373 11.5948 13.8822 11.4383 13.8749Z" fill="#C4C4C4"/>
</svg>
