<svg width="14" height="14" viewBox="0 0 14 14" fill="none" xmlns="http://www.w3.org/2000/svg">
    <path d="M10.7066 13.8749C10.6 13.8754 10.4949 13.8487 10.4 13.797L6.99998 11.9058L3.59998 13.797C3.37474 13.9229 3.10171 13.9015 2.89627 13.7419C2.69082 13.5823 2.5888 13.3124 2.63331 13.0462L3.29998 9.05827L0.553314 6.22494C0.378685 6.03978 0.314571 5.7673 0.386648 5.51661C0.465477 5.25978 0.67493 5.07295 0.926648 5.03494L4.72665 4.44702L6.39998 0.813274C6.51137 0.568906 6.74443 0.413696 6.99998 0.413696C7.25553 0.413696 7.48859 0.568906 7.59998 0.813274L9.29331 4.43994L13.0933 5.02786C13.345 5.06587 13.5545 5.2527 13.6333 5.50952C13.7054 5.76021 13.6413 6.0327 13.4666 6.21786L10.72 9.05119L11.3866 13.0391C11.4352 13.3103 11.3312 13.5867 11.12 13.7474C10.9993 13.8373 10.8539 13.8822 10.7066 13.8749Z" fill="#96CD59"/>
</svg>
