<svg width="15" height="15" viewBox="0 0 15 15" fill="none" xmlns="http://www.w3.org/2000/svg">
<path fill-rule="evenodd" clip-rule="evenodd" d="M11.9212 10.7465L14.7536 13.5706C14.9113 13.7271 15 13.94 15 14.1621C15 14.3842 14.9113 14.5972 14.7536 14.7536C14.5972 14.9113 14.3842 15 14.1621 15C13.94 15 13.7271 14.9113 13.5706 14.7536L10.7465 11.9212C9.58229 12.835 8.14459 13.3309 6.66452 13.329C2.98381 13.329 0 10.3452 0 6.66452C0 2.98381 2.98381 0 6.66452 0C10.3452 0 13.329 2.98381 13.329 6.66452C13.3309 8.14459 12.835 9.58229 11.9212 10.7465ZM6.66452 1.66613C3.90399 1.66613 1.66613 3.90399 1.66613 6.66452C1.66613 9.42505 3.90399 11.6629 6.66452 11.6629C9.42505 11.6629 11.6629 9.42505 11.6629 6.66452C11.6629 3.90399 9.42505 1.66613 6.66452 1.66613Z" fill="#1D1D1B"/>
</svg>
