<svg width="13" height="14" viewBox="0 0 13 14" fill="none" xmlns="http://www.w3.org/2000/svg">
<path d="M11.9997 9.98431V11.7908C12.0003 11.9585 11.9687 12.1245 11.907 12.2781C11.8453 12.4318 11.7548 12.5697 11.6413 12.6831C11.5278 12.7965 11.3938 12.8828 11.2479 12.9365C11.102 12.9903 10.9474 13.0102 10.794 12.9951C9.09204 12.7938 7.45724 12.1606 6.0209 11.1465C4.68457 10.222 3.55159 8.98843 2.70244 7.53351C1.76772 5.96259 1.18603 4.17405 1.00449 2.31277C0.990668 2.14625 1.00884 1.97843 1.05786 1.81998C1.10688 1.66153 1.18566 1.51592 1.28919 1.39244C1.39273 1.26896 1.51874 1.1703 1.65922 1.10274C1.79969 1.03519 1.95155 1.00022 2.10511 1.00006H3.76434C4.03276 0.997182 4.29297 1.10067 4.49649 1.29122C4.7 1.48178 4.83293 1.74641 4.8705 2.03578C4.94053 2.61389 5.07041 3.18152 5.25765 3.72785C5.33206 3.94338 5.34817 4.17761 5.30406 4.4028C5.25995 4.62799 5.15747 4.83469 5.00877 4.99841L4.30636 5.76315C5.09369 7.27069 6.24017 8.51891 7.62482 9.37612L8.32723 8.61138C8.4776 8.44948 8.66746 8.33791 8.87429 8.28988C9.08112 8.24185 9.29626 8.25939 9.49422 8.3404C9.99601 8.54427 10.5174 8.68567 11.0484 8.76192C11.317 8.80318 11.5624 8.95052 11.7378 9.1759C11.9132 9.40128 12.0064 9.68899 11.9997 9.98431Z" stroke="#1D1D1B" stroke-linecap="round" stroke-linejoin="round"/>
</svg>
