<svg width="16" height="16" viewBox="0 0 16 16" fill="none" xmlns="http://www.w3.org/2000/svg">
<path fill-rule="evenodd" clip-rule="evenodd" d="M13.0352 7.97304C12.7633 8.46885 12.2355 8.79673 11.6357 8.79673H5.67789L4.79822 10.3961H14.3947V11.9955H4.79822C3.58267 11.9955 2.81495 10.692 3.39874 9.62043L4.47834 7.66915L1.59941 1.59941H0V0H2.61503L3.36675 1.59941H15.2024C15.8101 1.59941 16.194 2.25516 15.8981 2.78297L13.0352 7.97304ZM13.843 3.19881H4.12659L6.02189 7.19733H11.6358L13.843 3.19881ZM4.79803 12.7952C3.91836 12.7952 3.20662 13.515 3.20662 14.3947C3.20662 15.2743 3.91836 15.9941 4.79803 15.9941C5.6777 15.9941 6.39744 15.2743 6.39744 14.3947C6.39744 13.515 5.6777 12.7952 4.79803 12.7952ZM11.2037 14.3947C11.2037 13.515 11.9154 12.7952 12.7951 12.7952C13.6747 12.7952 14.3945 13.515 14.3945 14.3947C14.3945 15.2743 13.6747 15.9941 12.7951 15.9941C11.9154 15.9941 11.2037 15.2743 11.2037 14.3947Z" fill="white"/>
</svg>
