<svg width="60" height="62" viewBox="0 0 60 62" fill="none" xmlns="http://www.w3.org/2000/svg">
<path d="M58.5453 13.6801L30.3949 0.0902754C30.1453 -0.0300918 29.8547 -0.0300918 29.6053 0.0902754L1.45472 13.6801C1.14085 13.8316 0.941406 14.1495 0.941406 14.498V47.502C0.941406 47.8505 1.14085 48.1684 1.45472 48.3199L29.6051 61.9097C29.7299 61.9699 29.865 62.0001 30 62.0001C30.1351 62.0001 30.2701 61.9699 30.3949 61.9097L58.5453 48.3199C58.8592 48.1684 59.0587 47.8505 59.0587 47.502V14.4981C59.0587 14.1494 58.8591 13.8318 58.5453 13.6801ZM30 1.91673L56.0615 14.498L48.5068 18.1451C48.459 18.1087 48.4085 18.075 48.353 18.0482L22.4686 5.55257L30 1.91673ZM20.4175 6.57945L46.441 19.1424L41.1111 21.7156L15.0984 9.15765L20.4175 6.57945ZM47.0499 20.8654V30.3768L42.0714 32.7803V23.2688L47.0499 20.8654ZM57.2422 46.9321L30.9082 59.6448V28.6579L37.1897 25.6254C37.6414 25.4073 37.8308 24.8645 37.6127 24.4127C37.3946 23.9611 36.8518 23.7715 36.4 23.9897L30 27.0794L27.4818 25.8636C27.03 25.6453 26.4871 25.8349 26.269 26.2866C26.0509 26.7383 26.2403 27.2813 26.692 27.4994L29.0918 28.6579V59.6448L2.75781 46.9319V15.945L22.8109 25.6258C22.9382 25.6873 23.0727 25.7164 23.2051 25.7164C23.5427 25.7164 23.867 25.5272 24.0236 25.2028C24.2417 24.7511 24.0523 24.2082 23.6006 23.9901L3.9386 14.498L12.9607 10.1425L40.2424 23.313C40.2464 23.3186 40.2509 23.3236 40.255 23.329V34.2273C40.255 34.5399 40.4157 34.8304 40.6804 34.9966C40.8274 35.0889 40.9951 35.1355 41.1633 35.1355C41.298 35.1355 41.433 35.1056 41.5581 35.0452L48.353 31.7649C48.6669 31.6134 48.8663 31.2957 48.8663 30.947V19.9886L57.2422 15.9451V46.9321Z" fill="#5B5B5B"/>
</svg>
