<svg width="59" height="59" viewBox="0 0 59 59" fill="none" xmlns="http://www.w3.org/2000/svg">
<g clip-path="url(#clip0)">
<path d="M29.5 9.1748C18.2926 9.1748 9.17493 18.2925 9.17493 29.4998C9.17493 40.7072 18.2926 49.8249 29.5 49.8249C40.7073 49.8249 49.825 40.7072 49.825 29.4998C49.825 18.2925 40.7073 9.1748 29.5 9.1748ZM29.5 47.9135C19.3467 47.9135 11.0863 39.6533 11.0863 29.4998C11.0863 19.3464 19.3467 11.0862 29.5 11.0862C39.6533 11.0862 47.9136 19.3465 47.9136 29.4998C47.9136 39.6531 39.6533 47.9135 29.5 47.9135Z" fill="#5B5B5B"/>
<path d="M30.4557 28.77V21.3188C33.5783 21.5698 35.6803 23.0225 35.6803 24.3387C35.6803 24.8665 36.1082 25.2945 36.6361 25.2945C37.1638 25.2945 37.5918 24.8666 37.5918 24.3387C37.5918 21.751 34.5265 19.6851 30.4557 19.403V18.2858C30.4557 17.7581 30.0278 17.3301 29.4999 17.3301C28.9722 17.3301 28.5442 17.7579 28.5442 18.2858V19.403C24.4734 19.6851 21.4081 21.751 21.4081 24.3387C21.4081 27.8055 24.7044 29.1582 28.5442 30.2293V37.6805C25.4216 37.4294 23.3196 35.9767 23.3196 34.6605C23.3196 34.1327 22.8917 33.7048 22.3638 33.7048C21.8361 33.7048 21.4081 34.1326 21.4081 34.6605C21.4081 37.2482 24.4734 39.3141 28.5442 39.5962V40.7134C28.5442 41.2412 28.9721 41.6692 29.4999 41.6692C30.0277 41.6692 30.4557 41.2413 30.4557 40.7134V39.5962C34.5265 39.3141 37.5918 37.2482 37.5918 34.6605C37.5917 31.1938 34.2955 29.8412 30.4557 28.77ZM28.5442 28.2386C24.6679 27.0933 23.3196 26.0531 23.3196 24.3387C23.3196 23.0225 25.4216 21.5698 28.5442 21.3188V28.2386ZM30.4557 37.6805V30.7606C34.332 31.906 35.6803 32.9462 35.6803 34.6605C35.6803 35.9767 33.5783 37.4295 30.4557 37.6805Z" fill="#5B5B5B"/>
<path d="M50.3595 8.64039C44.7878 3.06846 37.3796 0 29.4999 0C21.0169 0 13.0963 3.56938 7.49488 9.85254L8.01839 6.18809C8.09294 5.6655 7.72984 5.18151 7.20737 5.10684C6.68466 5.03275 6.2008 5.39539 6.12612 5.91775L5.10665 13.0539C5.05986 13.3817 5.18616 13.7105 5.44036 13.9228C5.61483 14.0684 5.83216 14.1448 6.05295 14.1448C6.15413 14.1448 6.25622 14.1288 6.35509 14.0957L12.4717 12.0569C12.9725 11.8899 13.2431 11.3487 13.0763 10.8479C12.9092 10.3471 12.3681 10.0763 11.8673 10.2434L8.79426 11.2678C14.0397 5.3032 21.5029 1.91139 29.4999 1.91139C36.869 1.91139 43.7972 4.78107 49.0081 9.99186C54.2188 15.2028 57.0885 22.1308 57.0885 29.5C57.0885 36.8692 54.2188 43.7972 49.0081 49.0081C43.7972 54.2189 36.8692 57.0886 29.4999 57.0886C28.9721 57.0886 28.5442 57.5165 28.5442 58.0444C28.5442 58.5721 28.972 59.0001 29.4999 59.0001C37.3796 59.0001 44.7878 55.9317 50.3595 50.3597C55.9312 44.7878 58.9999 37.3797 58.9999 29.5C58.9999 21.6203 55.9315 14.2121 50.3595 8.64039Z" fill="#5B5B5B"/>
<path d="M25.5577 56.8089C25.2328 56.7623 24.9055 56.7097 24.585 56.652C24.0653 56.5584 23.5687 56.9039 23.4752 57.4235C23.3818 57.943 23.7271 58.4399 24.2467 58.5334C24.5897 58.595 24.9396 58.6515 25.2871 58.7011C25.3329 58.7077 25.3786 58.7109 25.4236 58.7109C25.8915 58.7109 26.3003 58.367 26.3685 57.8906C26.4431 57.3679 26.0802 56.8838 25.5577 56.8089Z" fill="#5B5B5B"/>
<path d="M20.8867 55.7178C20.285 55.5203 19.6824 55.2988 19.0952 55.0596C18.6066 54.8607 18.0488 55.0951 17.8494 55.5841C17.6503 56.0729 17.8852 56.6307 18.374 56.8299C19.0021 57.0859 19.6469 57.3227 20.2906 57.534C20.3895 57.5665 20.49 57.5819 20.5889 57.5819C20.9906 57.5819 21.3645 57.3266 21.4968 56.9241C21.6613 56.4223 21.3882 55.8825 20.8867 55.7178Z" fill="#5B5B5B"/>
<path d="M2.54576 35.4105C2.41082 34.7919 2.29581 34.1604 2.20397 33.5335C2.12734 33.0112 1.64244 32.6504 1.11996 32.7264C0.597605 32.8029 0.23623 33.2883 0.312861 33.8104C0.411156 34.4809 0.533996 35.1563 0.678384 35.8178C0.775988 36.2649 1.1717 36.5701 1.61121 36.5701C1.67873 36.5701 1.7473 36.5629 1.81586 36.548C2.33142 36.4354 2.65834 35.9261 2.54576 35.4105Z" fill="#5B5B5B"/>
<path d="M2.22388 21.0055C1.71535 20.8658 1.18908 21.1653 1.04941 21.6744C0.870108 22.3275 0.711546 22.9957 0.578104 23.6604C0.474163 24.1779 0.80938 24.6817 1.3269 24.7856C1.39051 24.7984 1.45366 24.8045 1.51611 24.8045C1.96195 24.8045 2.36101 24.4908 2.45205 24.0368C2.57684 23.4155 2.72515 22.7907 2.8927 22.1801C3.03225 21.6711 2.73299 21.1452 2.22388 21.0055Z" fill="#5B5B5B"/>
<path d="M4.33955 40.8342C4.07912 40.2571 3.83575 39.6634 3.61611 39.0697C3.433 38.5747 2.88311 38.3218 2.38817 38.505C1.89313 38.6881 1.6403 39.2379 1.82341 39.7329C2.05826 40.3679 2.31857 41.0029 2.59721 41.6205C2.75669 41.9741 3.10459 42.1833 3.46896 42.1833C3.60032 42.1833 3.73388 42.156 3.86145 42.0985C4.34266 41.8813 4.55654 41.3153 4.33955 40.8342Z" fill="#5B5B5B"/>
<path d="M1.06488 26.8094C0.537338 26.7774 0.0851582 27.1792 0.053584 27.7062C0.0180918 28.2997 0 28.9033 0 29.5011C0 29.5825 0.000345703 29.6639 0.00103711 29.7452C0.00518555 30.2705 0.432244 30.6934 0.956676 30.6934C0.959096 30.6934 0.961746 30.6934 0.964281 30.6934C1.49205 30.6892 1.91658 30.2579 1.91254 29.7301C1.91197 29.6533 1.91151 29.5764 1.91151 29.5002C1.91151 28.9414 1.92845 28.3764 1.96175 27.8207C1.99344 27.2939 1.59185 26.8411 1.06488 26.8094Z" fill="#5B5B5B"/>
<path d="M15.6713 53.3782C15.1239 53.0605 14.58 52.7192 14.0545 52.3636C13.6173 52.0677 13.0233 52.1822 12.7274 52.6193C12.4315 53.0565 12.546 53.6505 12.9831 53.9464C13.5447 54.3267 14.1264 54.6916 14.7117 55.0313C14.8627 55.119 15.0276 55.1606 15.1906 55.1606C15.5202 55.1606 15.8408 54.99 16.0181 54.6844C16.2832 54.2282 16.1278 53.6432 15.6713 53.3782Z" fill="#5B5B5B"/>
<path d="M7.21748 45.7709C6.84355 45.2596 6.48275 44.7288 6.14477 44.1928C5.86337 43.7463 5.27325 43.6123 4.8266 43.8941C4.38007 44.1756 4.2464 44.7657 4.52791 45.2122C4.88917 45.7853 5.27498 46.3528 5.67473 46.8994C5.86198 47.1553 6.15249 47.2908 6.4468 47.2908C6.64269 47.2908 6.84021 47.2308 7.01029 47.1065C7.43643 46.7948 7.52919 46.1969 7.21748 45.7709Z" fill="#5B5B5B"/>
<path d="M11.0503 50.0123C10.5793 49.5885 10.117 49.1426 9.67624 48.6874C9.3091 48.3082 8.70423 48.2984 8.32488 48.6657C7.94565 49.0328 7.93585 49.6378 8.3031 50.017C8.77418 50.5036 9.26831 50.9801 9.77165 51.4331C9.95441 51.5976 10.183 51.6785 10.4107 51.6785C10.6722 51.6785 10.9326 51.5717 11.1214 51.3621C11.4745 50.9696 11.4425 50.3654 11.0503 50.0123Z" fill="#5B5B5B"/>
<path d="M4.11297 16.4037C3.63601 16.1772 3.06595 16.3803 2.83951 16.8568C2.68948 17.1725 2.54324 17.4952 2.40473 17.816C2.19547 18.3004 2.41868 18.863 2.90324 19.0723C3.02677 19.1255 3.15525 19.1508 3.28167 19.1508C3.65145 19.1508 4.00372 18.9349 4.15952 18.5739C4.28904 18.274 4.42571 17.9722 4.56607 17.677C4.7925 17.2002 4.58969 16.6302 4.11297 16.4037Z" fill="#5B5B5B"/>
</g>
<defs>
<clipPath id="clip0">
<rect width="59" height="59" fill="white"/>
</clipPath>
</defs>
</svg>
