<svg width="59" height="59" viewBox="0 0 59 59" fill="none" xmlns="http://www.w3.org/2000/svg">
<path d="M58.0168 53.1H55.0668V34.4167C55.0664 33.8736 54.6257 33.4337 54.0827 33.4341C53.7623 33.4343 53.462 33.5907 53.2781 33.8532L39.5114 53.5199C39.2002 53.965 39.3087 54.5781 39.7538 54.8892C39.9189 55.0046 40.1153 55.0666 40.3168 55.0667H53.1001V58.0167C53.1001 58.5597 53.5404 59 54.0834 59C54.6265 59 55.0668 58.5597 55.0668 58.0167V55.0667H58.0168C58.5598 55.0667 59.0001 54.6264 59.0001 54.0833C59.0001 53.5403 58.5598 53.1 58.0168 53.1ZM53.1001 53.1H42.2048L53.1001 37.5358V53.1Z" fill="#5B5B5B"/>
<path d="M40.3167 57.0333H28.675L39.4985 44.2884C39.5231 44.2591 39.5461 44.2286 39.5674 44.1969C41.6036 41.1832 40.9253 37.103 38.0235 34.9103C34.4952 32.3752 29.5798 33.1804 27.0447 36.7087C26.0834 38.0466 25.5664 39.6526 25.5667 41.3C25.5667 41.8431 26.0069 42.2833 26.55 42.2833C27.093 42.2833 27.5333 41.8431 27.5333 41.3C27.5329 38.0415 30.1743 35.3998 33.4327 35.3994C34.6678 35.3993 35.8717 35.7867 36.875 36.5072C38.9077 38.0647 39.381 40.9331 37.9567 43.0612L25.8007 57.3805C25.4493 57.7946 25.5002 58.415 25.9143 58.7665C26.0919 58.9172 26.3171 58.9999 26.55 59H40.3167C40.8597 59 41.3 58.5597 41.3 58.0167C41.3 57.4736 40.8597 57.0333 40.3167 57.0333Z" fill="#5B5B5B"/>
<path d="M26.5716 52.1353C26.5922 51.5927 26.1687 51.1362 25.626 51.1156C25.6259 51.1156 25.6258 51.1156 25.6257 51.1156C12.7969 50.6395 2.50025 40.3613 2.00108 27.5333H5.9C6.44305 27.5333 6.88333 27.093 6.88333 26.55C6.88333 26.007 6.44305 25.5667 5.9 25.5667H2.00108C2.49312 12.7613 12.7612 2.49361 25.5667 2.00207V4.91667C25.5667 5.45971 26.007 5.9 26.55 5.9C27.093 5.9 27.5333 5.45971 27.5333 4.91667V2.00207C40.1635 2.49054 50.3572 12.4918 51.0861 25.1104L47.2511 21.2754C46.8605 20.898 46.2381 20.9089 45.8607 21.2995C45.4927 21.6805 45.4927 22.2847 45.8607 22.6658L51.3497 28.1548C51.453 28.2799 51.5863 28.3769 51.7371 28.437C51.7756 28.4486 51.8147 28.4582 51.8541 28.4655C51.9216 28.4899 51.9914 28.5067 52.0626 28.5157C52.0724 28.5157 52.0813 28.5157 52.0911 28.5157C52.1009 28.5157 52.1098 28.5157 52.1186 28.5157C52.1935 28.51 52.2675 28.4955 52.3389 28.4724C52.3793 28.4675 52.4194 28.46 52.4589 28.4498C52.592 28.4025 52.7132 28.3266 52.8139 28.2276L58.3776 22.6658C58.7548 22.2752 58.7441 21.6528 58.3535 21.2754C57.9724 20.9074 57.3683 20.9074 56.9871 21.2754L53.0567 25.2028C52.3543 11.108 40.7321 0.0345396 26.6198 0.0137667C26.5952 0.0127833 26.5746 0 26.55 0C26.5254 0 26.5048 0.0127833 26.4802 0.0137667C11.8715 0.0338021 0.0338021 11.8715 0.0137667 26.4802C0.0137667 26.5048 0 26.5254 0 26.55C0 26.5746 0.0127833 26.5952 0.0137667 26.6198C0.0382271 40.8679 11.3146 52.5515 25.5529 53.0813H25.5893C26.1177 53.0812 26.5516 52.6634 26.5716 52.1353Z" fill="#5B5B5B"/>
<path d="M39.7611 13.3387C39.3771 12.9548 38.7546 12.9548 38.3706 13.3387L27.8037 23.9046C27.0054 23.5486 26.0935 23.5486 25.2953 23.9046L20.2921 18.9014C19.9014 18.5242 19.2789 18.535 18.9016 18.9256C18.5336 19.3067 18.5336 19.9108 18.9016 20.2918L23.895 25.2852C23.1939 26.7528 23.8153 28.511 25.2831 29.212C26.4096 29.7501 27.7531 29.5194 28.6356 28.6364C29.523 27.7566 29.7515 26.4094 29.204 25.2862L39.7611 14.7291C40.145 14.3451 40.145 13.7227 39.7611 13.3387ZM27.2455 27.2447C27.2453 27.2449 27.2453 27.2449 27.2452 27.245C26.8563 27.6168 26.2437 27.6168 25.8548 27.245C25.4707 26.861 25.4707 26.2384 25.8545 25.8543C26.2385 25.4702 26.8611 25.4702 27.2452 25.8541C27.6293 26.2381 27.6293 26.8607 27.2455 27.2447Z" fill="#5B5B5B"/>
</svg>
