<svg width="35" height="16" viewBox="0 0 35 16" fill="none" xmlns="http://www.w3.org/2000/svg">
<g clip-path="url(#clip0)">
<path d="M34.4531 5.29532V-0.11377H0.546875V5.29532H2.1875V6.37714H0.546875V9.62259H2.1875V10.7044H0.546875V14.1135H13.125V13.409C13.125 13.1104 13.3705 12.868 13.6719 12.868C13.9732 12.868 14.2188 13.1104 14.2188 13.409V14.1135H34.4531V10.7044H32.8125V9.62259H34.4531V6.37714H32.8125V5.29532H34.4531ZM32.8125 7.45896H33.3594V8.54078H32.8125C32.2093 8.54078 31.7188 9.02597 31.7188 9.62259V10.7044C31.7188 11.301 32.2093 11.7862 32.8125 11.7862H33.3594V12.868H15.2119C14.9855 12.2401 14.3839 11.7862 13.6719 11.7862C12.9598 11.7862 12.3583 12.2401 12.1319 12.868H1.64062V11.7862H2.1875C2.7907 11.7862 3.28125 11.301 3.28125 10.7044V9.62259C3.28125 9.02597 2.7907 8.54078 2.1875 8.54078H1.64062V7.45896H2.1875C2.7907 7.45896 3.28125 6.97376 3.28125 6.37714V5.29532C3.28125 4.6987 2.7907 4.2135 2.1875 4.2135H1.64062V0.968049H33.3594V4.2135H32.8125C32.2093 4.2135 31.7188 4.6987 31.7188 5.29532V6.37714C31.7188 6.97376 32.2093 7.45896 32.8125 7.45896Z" fill="black"/>
<path d="M4.375 7.4589H17.5V2.0498H4.375V7.4589ZM5.46875 3.13162H16.4062V6.37708H5.46875V3.13162Z" fill="black"/>
<path d="M15.3125 4.21338H6.5625V5.2952H15.3125V4.21338Z" fill="black"/>
<path d="M6.5625 8.54102H4.375V9.62283H6.5625V8.54102Z" fill="black"/>
<path d="M9.84375 8.54102H7.65625V9.62283H9.84375V8.54102Z" fill="black"/>
<path d="M13.125 8.54102H10.9375V9.62283H13.125V8.54102Z" fill="black"/>
<path d="M6.5625 10.7046H4.375V11.7864H6.5625V10.7046Z" fill="black"/>
<path d="M9.84375 10.7046H7.65625V11.7864H9.84375V10.7046Z" fill="black"/>
<path d="M16.4062 8.54102H14.2188V9.62283H16.4062V8.54102Z" fill="black"/>
<path d="M20.5855 5.54912V6.09912C20.7533 5.87423 20.9335 5.71046 21.126 5.60779C21.3185 5.50512 21.5529 5.45379 21.8293 5.45379C22.3525 5.45379 22.7054 5.67134 22.8881 6.10646C23.2188 5.66646 23.6408 5.44646 24.1541 5.44646C24.549 5.44646 24.8476 5.55646 25.05 5.77646C25.2573 5.99157 25.361 6.29468 25.361 6.68579V9.33312H24.7316V6.94979C24.7316 6.6369 24.6823 6.40223 24.5835 6.24579C24.4848 6.08446 24.28 6.00379 23.969 6.00379C23.3175 6.00379 22.9917 6.39734 22.9917 7.18446V9.33312H22.3624V6.90579C22.3624 6.61734 22.313 6.39734 22.2143 6.24579C22.1205 6.08934 21.9354 6.01112 21.659 6.01112C21.2691 6.01112 20.9976 6.1309 20.8446 6.37046C20.6965 6.60512 20.6225 6.92534 20.6225 7.33112V9.33312H19.9932V5.54912H20.5855Z" fill="black"/>
<path d="M29.1454 8.76846V9.33312H25.7248C25.7396 9.04468 25.784 8.7929 25.8581 8.57779C25.9321 8.36268 26.0457 8.16957 26.1987 7.99846C26.3566 7.82246 26.5096 7.67823 26.6577 7.56579C26.8058 7.45334 27.0156 7.31401 27.287 7.14779C27.7115 6.88379 27.9904 6.68579 28.1237 6.55379C28.4001 6.2849 28.5383 5.98668 28.5383 5.65912C28.5383 5.37068 28.4445 5.13601 28.2569 4.95512C28.0694 4.76934 27.825 4.67646 27.524 4.67646C27.1636 4.67646 26.9045 4.80112 26.7465 5.05046C26.5935 5.2949 26.5121 5.60534 26.5022 5.98179H25.8655V5.84246C25.8655 5.32912 26.0185 4.91601 26.3245 4.60312C26.6355 4.29023 27.0452 4.13379 27.5536 4.13379C28.0521 4.13379 28.4494 4.27068 28.7456 4.54446C29.0417 4.81823 29.1898 5.1849 29.1898 5.64446C29.1898 5.84001 29.1553 6.02579 29.0862 6.20179C29.022 6.3729 28.948 6.51712 28.864 6.63446C28.7851 6.75179 28.6617 6.87646 28.4939 7.00846C28.331 7.14046 28.1952 7.24312 28.0866 7.31646C27.9781 7.3849 27.8226 7.48023 27.6202 7.60246C27.2155 7.84201 26.9465 8.02779 26.8132 8.15979C26.6256 8.34557 26.5047 8.54846 26.4504 8.76846H29.1454Z" fill="black"/>
</g>
<defs>
<clipPath id="clip0">
<rect width="35" height="16" fill="white"/>
</clipPath>
</defs>
</svg>
