<svg width="31" height="20" viewBox="0 0 31 20" fill="none" xmlns="http://www.w3.org/2000/svg">
<path d="M22.2812 4.17822H23.25V6.08835H22.2812V4.17822Z" fill="black"/>
<path d="M26.1562 4.17822H27.125V6.08835H26.1562V4.17822Z" fill="black"/>
<path d="M24.2188 5.1333H25.1875V7.04343H24.2188V5.1333Z" fill="black"/>
<path d="M1.9375 2.26807H2.90625V3.22313H1.9375V2.26807Z" fill="black"/>
<path d="M16.4688 2.26807H17.4375V3.22313H16.4688V2.26807Z" fill="black"/>
<path d="M1.9375 16.5942H2.90625V17.5493H1.9375V16.5942Z" fill="black"/>
<path d="M16.4688 16.5942H17.4375V17.5493H16.4688V16.5942Z" fill="black"/>
<path d="M9.69914 12.7739C8.87371 12.7753 8.08613 12.4319 7.53151 11.8289L8.25098 11.1886C8.61781 11.5894 9.13979 11.8184 9.68755 11.8188L9.70836 12.5219L9.70008 12.7739H9.69914ZM10.899 12.5132L10.4941 11.6456C10.9921 11.4197 11.3703 10.9969 11.5359 10.4818L12.4602 10.7682C12.2121 11.5409 11.6452 12.1744 10.8985 12.5132H10.899ZM6.92699 10.8004C6.67203 10.0295 6.76001 9.18845 7.16918 8.48521L8.00927 8.96274C7.73728 9.43141 7.6791 9.99149 7.84938 10.5047L6.92699 10.8004ZM11.6144 9.69187C11.5517 9.15511 11.2618 8.66941 10.8162 8.35487L11.3814 7.57887C12.0491 8.05105 12.4833 8.77947 12.5768 9.58437L11.6144 9.69187ZM8.54449 8.36909L7.97048 7.59986C8.63366 7.12116 9.47067 6.94069 10.276 7.10227L10.0823 8.03775C9.5447 7.9291 8.98535 8.04941 8.5426 8.36909H8.54449Z" fill="black"/>
<path d="M0 0.35791V19.4592H31V0.35791H0ZM30.0312 18.5042H29.0625V14.6839H28.0938V18.5042H27.125V14.6839H26.1562V18.5042H25.1875V14.6839H24.2188V18.5042H23.25V14.6839H22.2812V18.5042H21.3125V14.6839H20.3438V18.5042H0.96875V1.31298H30.0312V18.5042Z" fill="black"/>
<path d="M27.9088 8.95353L29.0625 6.67849V2.26807H20.3438V6.67849L21.4975 8.95353H27.9088ZM21.3125 3.22313H28.0938V6.45324L27.31 7.99846H22.0963L21.3125 6.45324V3.22313Z" fill="black"/>
<path d="M9.69891 17.5494L9.70861 17.2887L9.68732 16.5943C6.19287 16.5722 3.27905 13.9532 2.93469 10.5249L1.96973 10.6123C2.36494 14.5343 5.70116 17.5286 9.69891 17.5494Z" fill="black"/>
<path d="M13.6169 15.3526L14.1798 16.13C17.4435 13.8437 18.4004 9.48158 16.3872 6.06982L15.5483 6.55272C17.3091 9.53707 16.4719 13.3527 13.6169 15.3526Z" fill="black"/>
<path d="M9.68767 3.22315C10.6633 3.22105 11.6275 3.42857 12.5135 3.83149L12.9189 2.96433C11.9059 2.50335 10.8033 2.26575 9.68767 2.26808C6.91718 2.27508 4.35955 3.73379 2.97241 6.09791L3.81084 6.57544C5.02486 4.50629 7.2632 3.22945 9.68767 3.22315Z" fill="black"/>
<path d="M6.35438 6.44385C5.38539 7.34249 4.83834 8.59718 4.84354 9.90876C4.84662 11.6163 5.77138 13.1932 7.27086 14.048L7.75523 13.2209C6.55541 12.5368 5.81513 11.2751 5.81229 9.90876C5.80946 8.85996 6.24795 7.85709 7.02323 7.13916L6.35438 6.44385Z" fill="black"/>
<path d="M7.25342 5.77955L7.74063 6.60474C8.79902 5.99896 10.0854 5.92132 11.211 6.39535C12.3363 6.86962 13.1688 7.83961 13.4562 9.01246L14.3979 8.78885C14.0392 7.32267 12.999 6.10972 11.592 5.51723C10.185 4.92475 8.57693 5.02221 7.25436 5.78048L7.25342 5.77955Z" fill="black"/>
<path d="M9.6878 13.7291C9.31293 13.7295 8.93995 13.6761 8.58045 13.571L8.30444 14.4864C9.77034 14.9157 11.3559 14.6377 12.5817 13.7365C13.8078 12.8353 14.5306 11.4165 14.5315 9.90881V9.89062L13.5628 9.90881C13.5604 12.0176 11.8268 13.7267 9.6878 13.7291Z" fill="black"/>
<path d="M21.3125 13.729H28.0938V9.90869H21.3125V13.729ZM25.1875 10.8638H27.125V12.7739H25.1875V10.8638ZM22.2812 10.8638H24.2188V12.7739H22.2812V10.8638Z" fill="black"/>
</svg>
