<svg width="34" height="16" viewBox="0 0 34 16" fill="none" xmlns="http://www.w3.org/2000/svg">
<path d="M32.9375 4.09159C33.0784 4.09159 33.2135 4.03645 33.3132 3.93831C33.4128 3.84017 33.4688 3.70706 33.4688 3.56826V1.47498C33.4688 1.33619 33.4128 1.20308 33.3132 1.10494C33.2135 1.0068 33.0784 0.95166 32.9375 0.95166H1.0625C0.921604 0.95166 0.786478 1.0068 0.68685 1.10494C0.587221 1.20308 0.53125 1.33619 0.53125 1.47498V3.56826C0.53125 3.70706 0.587221 3.84017 0.68685 3.93831C0.786478 4.03645 0.921604 4.09159 1.0625 4.09159H1.59375V5.13823H1.0625C0.921604 5.13823 0.786478 5.19336 0.68685 5.2915C0.587221 5.38965 0.53125 5.52276 0.53125 5.66155V12.988C0.53125 13.1268 0.587221 13.2599 0.68685 13.3581C0.786478 13.4562 0.921604 13.5114 1.0625 13.5114H2.125V15.0813C2.125 15.2201 2.18097 15.3532 2.2806 15.4514C2.38023 15.5495 2.51535 15.6046 2.65625 15.6046H16.4688C16.6096 15.6046 16.7448 15.5495 16.8444 15.4514C16.944 15.3532 17 15.2201 17 15.0813V13.5114H18.0625V15.0813C18.0625 15.2201 18.1185 15.3532 18.2181 15.4514C18.3177 15.5495 18.4529 15.6046 18.5938 15.6046H23.9062C24.0471 15.6046 24.1823 15.5495 24.2819 15.4514C24.3815 15.3532 24.4375 15.2201 24.4375 15.0813V13.5114H25.5V15.0813C25.5 15.2201 25.556 15.3532 25.6556 15.4514C25.7552 15.5495 25.8904 15.6046 26.0312 15.6046H31.3438C31.4846 15.6046 31.6198 15.5495 31.7194 15.4514C31.819 15.3532 31.875 15.2201 31.875 15.0813V13.5114H32.9375C33.0784 13.5114 33.2135 13.4562 33.3132 13.3581C33.4128 13.2599 33.4688 13.1268 33.4688 12.988V5.66155C33.4688 5.52276 33.4128 5.38965 33.3132 5.2915C33.2135 5.19336 33.0784 5.13823 32.9375 5.13823H32.4062V4.09159H32.9375ZM15.9375 14.558H3.1875V13.5114H15.9375V14.558ZM23.375 14.558H19.125V13.5114H23.375V14.558ZM30.8125 14.558H26.5625V13.5114H30.8125V14.558ZM31.875 6.18487H32.4062V12.4647H1.59375V6.18487H2.125C2.2659 6.18487 2.40102 6.12973 2.50065 6.03159C2.60028 5.93345 2.65625 5.80034 2.65625 5.66155V3.56826C2.65625 3.42947 2.60028 3.29636 2.50065 3.19822C2.40102 3.10008 2.2659 3.04494 2.125 3.04494H1.59375V1.9983H32.4062V3.04494H31.875C31.7341 3.04494 31.599 3.10008 31.4993 3.19822C31.3997 3.29636 31.3438 3.42947 31.3438 3.56826V5.66155C31.3438 5.80034 31.3997 5.93345 31.4993 6.03159C31.599 6.12973 31.7341 6.18487 31.875 6.18487Z" fill="black"/>
<path d="M17.5312 3.04492H14.3438C14.2029 3.04492 14.0677 3.10006 13.9681 3.1982C13.8685 3.29634 13.8125 3.42945 13.8125 3.56824V10.8947C13.8125 11.0335 13.8685 11.1666 13.9681 11.2648C14.0677 11.3629 14.2029 11.4181 14.3438 11.4181H17.5312C17.6721 11.4181 17.8073 11.3629 17.9069 11.2648C18.0065 11.1666 18.0625 11.0335 18.0625 10.8947V3.56824C18.0625 3.42945 18.0065 3.29634 17.9069 3.1982C17.8073 3.10006 17.6721 3.04492 17.5312 3.04492ZM17 10.3714H14.875V4.09156H17V10.3714Z" fill="black"/>
<path d="M22.8438 3.04492H19.6562C19.5154 3.04492 19.3802 3.10006 19.2806 3.1982C19.181 3.29634 19.125 3.42945 19.125 3.56824V10.8947C19.125 11.0335 19.181 11.1666 19.2806 11.2648C19.3802 11.3629 19.5154 11.4181 19.6562 11.4181H22.8438C22.9846 11.4181 23.1198 11.3629 23.2194 11.2648C23.319 11.1666 23.375 11.0335 23.375 10.8947V3.56824C23.375 3.42945 23.319 3.29634 23.2194 3.1982C23.1198 3.10006 22.9846 3.04492 22.8438 3.04492ZM22.3125 10.3714H20.1875V4.09156H22.3125V10.3714Z" fill="black"/>
<path d="M12.2188 3.04492H9.03125C8.89035 3.04492 8.75523 3.10006 8.6556 3.1982C8.55597 3.29634 8.5 3.42945 8.5 3.56824V10.8947C8.5 11.0335 8.55597 11.1666 8.6556 11.2648C8.75523 11.3629 8.89035 11.4181 9.03125 11.4181H12.2188C12.3596 11.4181 12.4948 11.3629 12.5944 11.2648C12.694 11.1666 12.75 11.0335 12.75 10.8947V3.56824C12.75 3.42945 12.694 3.29634 12.5944 3.1982C12.4948 3.10006 12.3596 3.04492 12.2188 3.04492ZM11.6875 10.3714H9.5625V4.09156H11.6875V10.3714Z" fill="black"/>
<path d="M6.90625 3.04492H3.71875C3.57785 3.04492 3.44273 3.10006 3.3431 3.1982C3.24347 3.29634 3.1875 3.42945 3.1875 3.56824V10.8947C3.1875 11.0335 3.24347 11.1666 3.3431 11.2648C3.44273 11.3629 3.57785 11.4181 3.71875 11.4181H6.90625C7.04715 11.4181 7.18227 11.3629 7.2819 11.2648C7.38153 11.1666 7.4375 11.0335 7.4375 10.8947V3.56824C7.4375 3.42945 7.38153 3.29634 7.2819 3.1982C7.18227 3.10006 7.04715 3.04492 6.90625 3.04492ZM6.375 10.3714H4.25V4.09156H6.375V10.3714Z" fill="black"/>
<path d="M26.5625 3.04492H24.4375C24.2966 3.04492 24.1615 3.10006 24.0618 3.1982C23.9622 3.29634 23.9062 3.42945 23.9062 3.56824V5.66153C23.9062 5.80032 23.9622 5.93343 24.0618 6.03157C24.1615 6.12971 24.2966 6.18485 24.4375 6.18485H26.5625C26.7034 6.18485 26.8385 6.12971 26.9382 6.03157C27.0378 5.93343 27.0938 5.80032 27.0938 5.66153V3.56824C27.0938 3.42945 27.0378 3.29634 26.9382 3.1982C26.8385 3.10006 26.7034 3.04492 26.5625 3.04492ZM26.0312 5.1382H24.9688V4.09156H26.0312V5.1382Z" fill="black"/>
<path d="M30.2812 3.04492H28.1562C28.0154 3.04492 27.8802 3.10006 27.7806 3.1982C27.681 3.29634 27.625 3.42945 27.625 3.56824V5.66153C27.625 5.80032 27.681 5.93343 27.7806 6.03157C27.8802 6.12971 28.0154 6.18485 28.1562 6.18485H30.2812C30.4221 6.18485 30.5573 6.12971 30.6569 6.03157C30.7565 5.93343 30.8125 5.80032 30.8125 5.66153V3.56824C30.8125 3.42945 30.7565 3.29634 30.6569 3.1982C30.5573 3.10006 30.4221 3.04492 30.2812 3.04492ZM29.75 5.1382H28.6875V4.09156H29.75V5.1382Z" fill="black"/>
</svg>
