<svg width="32" height="32" viewBox="0 0 32 32" fill="none" xmlns="http://www.w3.org/2000/svg">
<path d="M26.0002 0H6.00025C4.52663 0 3.33325 1.19388 3.33325 2.6665V21.334V29.334C3.33325 30.8066 4.52663 32 6.00025 32H16.0003H26.0002C27.4729 32 28.6663 30.8066 28.6663 29.334V2.6665C28.6663 1.19388 27.4729 0 26.0002 0ZM14.6663 30.666H6.00025C5.26488 30.666 4.66625 30.0683 4.66625 29.3339V22.666H4.98269C5.90069 23.8252 7.00319 24.8379 8.23169 25.6562L8.14475 25.7246C7.65256 26.0889 7.33325 26.6739 7.33325 27.334C7.33325 28.4375 8.22875 29.334 9.33325 29.334C9.99344 29.334 10.5784 29.0137 10.9426 28.5215L11.8459 27.375C12.0891 27.4502 12.3343 27.5196 12.5813 27.5811C13.2649 27.7519 13.9622 27.8711 14.6663 27.9375V30.666ZM17.3333 18.666C17.1692 18.666 17.0188 18.7266 16.9026 18.8252L12.8 22.0566C12.7424 22.0332 12.6838 22.0107 12.6271 21.9863C11.5949 21.5498 10.6681 20.9248 9.87125 20.1289C9.07538 19.332 8.45038 18.4042 8.01381 17.373C7.56169 16.3056 7.33313 15.1704 7.33313 13.9999C7.33313 12.8295 7.56163 11.6943 8.01381 10.6269C8.45031 9.59513 9.07531 8.66788 9.87125 7.8715C10.6681 7.07513 11.5949 6.45013 12.6271 6.01356C13.6945 5.56238 14.8293 5.33337 16.0002 5.33337C17.1701 5.33337 18.3049 5.56238 19.3733 6.01356C20.4045 6.45006 21.3312 7.07506 22.1281 7.8715C22.924 8.66788 23.549 9.59513 23.9856 10.6269C24.4377 11.6943 24.6663 12.8295 24.6663 13.9999C24.6663 15.1704 24.4378 16.3056 23.9856 17.373C23.5491 18.4042 22.9241 19.332 22.1281 20.1289C21.3312 20.9248 20.4045 21.5498 19.3733 21.9863C18.3049 22.4375 17.1701 22.666 16.0002 22.666C15.8537 22.666 15.7082 22.6631 15.5627 22.6562L17.841 19.7637C17.9396 19.6484 18.0002 19.4981 18.0002 19.334C18.0003 18.9649 17.7014 18.666 17.3333 18.666ZM13.05 23.5577C13.0784 23.5664 13.1067 23.5742 13.135 23.583L9.89475 27.6953L9.88206 27.7119L9.87031 27.7286C9.74238 27.9004 9.54706 28.0001 9.33319 28.0001C8.965 28.0001 8.66619 27.7013 8.66619 27.3341C8.66619 27.1192 8.76481 26.9239 8.93769 26.7969L8.95431 26.7843L8.96994 26.7716L13.05 23.5577ZM27.3333 29.334C27.3333 30.0684 26.7346 30.6661 26.0002 30.6661H16.0003V26.6661C14.8713 26.6661 13.7776 26.5196 12.7366 26.2442L14.5833 23.9004C15.0461 23.9649 15.5188 24.0001 16.0003 24.0001C21.5227 24.0001 26.0002 19.5235 26.0002 14.0001C26.0002 8.47713 21.5227 4.00006 16.0003 4.00006C10.4768 4.00006 6.00025 8.47713 6.00025 14.0001C6.00025 17.9503 8.29031 21.3653 11.6155 22.9903L9.33913 24.7833C7.88988 23.8907 6.63406 22.7149 5.64769 21.3341H4.66625V2.6665C4.66625 1.93163 5.26488 1.3335 6.00025 1.3335H26.0002C26.7346 1.3335 27.3333 1.93163 27.3333 2.6665V29.334Z" fill="black"/>
<path d="M26.0003 2C25.6321 2 25.3333 2.29831 25.3333 2.6665C25.3333 3.03469 25.6321 3.3335 26.0003 3.3335C26.3684 3.3335 26.6663 3.03469 26.6663 2.6665C26.6663 2.29831 26.3684 2 26.0003 2Z" fill="black"/>
<path d="M26.0003 28.666C25.6321 28.666 25.3333 28.9648 25.3333 29.334C25.3333 29.7012 25.6321 30 26.0003 30C26.3684 30 26.6663 29.7012 26.6663 29.334C26.6663 28.9649 26.3684 28.666 26.0003 28.666Z" fill="black"/>
<path d="M6.00025 2C5.63206 2 5.33325 2.29831 5.33325 2.6665C5.33325 3.03469 5.63206 3.3335 6.00025 3.3335C6.36844 3.3335 6.66625 3.03469 6.66625 2.6665C6.66625 2.29831 6.36838 2 6.00025 2Z" fill="black"/>
<path d="M16.0003 13.3335C15.6321 13.3335 15.3333 13.6318 15.3333 14C15.3333 14.3682 15.6321 14.6665 16.0003 14.6665C16.3684 14.6665 16.6663 14.3682 16.6663 14C16.6663 13.6318 16.3684 13.3335 16.0003 13.3335Z" fill="black"/>
<path d="M16.0007 6.6665C11.9499 6.6665 8.66675 9.94969 8.66675 14C8.66675 14.3682 8.96556 14.6665 9.33375 14.6665C9.70194 14.6665 10.0007 14.3682 10.0007 14C10.0007 12.3974 10.6247 10.8906 11.7576 9.75732C12.8914 8.624 14.3972 8 16.0007 8C16.3689 8 16.6667 7.70169 16.6667 7.3335C16.6667 6.96532 16.3689 6.6665 16.0007 6.6665Z" fill="black"/>
<path d="M16.0007 10.6665C14.1589 10.6665 12.6667 12.1592 12.6667 14C12.6667 15.8408 14.1589 17.334 16.0007 17.334C17.8416 17.334 19.3337 15.8408 19.3337 14C19.3337 12.1592 17.8416 10.6665 16.0007 10.6665ZM16.0007 16C14.8972 16 14.0007 15.1026 14.0007 14C14.0007 12.8974 14.8972 12 16.0007 12C17.1033 12 18.0007 12.8974 18.0007 14C18.0007 15.1026 17.1032 16 16.0007 16Z" fill="black"/>
<path d="M6.00025 28.666C5.63206 28.666 5.33325 28.9648 5.33325 29.334C5.33325 29.7012 5.63206 30 6.00025 30C6.36844 30 6.66625 29.7012 6.66625 29.334C6.66625 28.9649 6.36838 28.666 6.00025 28.666Z" fill="black"/>
<path d="M19.1382 26.8613C18.8774 26.6016 18.4556 26.6016 18.1948 26.8613C18.0649 26.9922 17.9995 27.1631 18.0005 27.334V29.333C17.9995 29.5039 18.0649 29.6738 18.1948 29.8047C18.4556 30.0644 18.8774 30.0644 19.1382 29.8047C19.2681 29.6748 19.3335 29.5039 19.3335 29.334V27.334C19.3335 27.1621 19.2681 26.9922 19.1382 26.8613Z" fill="black"/>
<path d="M21.1382 26.8613C20.8774 26.6016 20.4556 26.6016 20.1948 26.8613C20.0649 26.9922 19.9995 27.1631 20.0005 27.334V29.333C19.9995 29.5039 20.0649 29.6738 20.1948 29.8047C20.4556 30.0644 20.8774 30.0644 21.1382 29.8047C21.2681 29.6748 21.3335 29.5039 21.3335 29.334V27.334C21.3335 27.1621 21.2681 26.9922 21.1382 26.8613Z" fill="black"/>
<path d="M23.1382 26.8613C22.8774 26.6016 22.4556 26.6016 22.1948 26.8613C22.0649 26.9922 21.9995 27.1631 22.0005 27.334V29.333C21.9995 29.5039 22.0649 29.6738 22.1948 29.8047C22.4556 30.0644 22.8774 30.0644 23.1382 29.8047C23.2681 29.6738 23.3335 29.5039 23.3335 29.333V27.334C23.3335 27.1631 23.2681 26.9922 23.1382 26.8613Z" fill="black"/>
</svg>
