<svg width="31" height="22" viewBox="0 0 31 22" fill="none" xmlns="http://www.w3.org/2000/svg">
<path d="M29.0625 2.5477H13.0781V1.59978C13.0781 1.077 12.6436 0.651855 12.1094 0.651855H11.1406C10.6064 0.651855 10.1719 1.077 10.1719 1.59978V2.5477H9.20312V1.59978C9.20312 1.077 8.76864 0.651855 8.23438 0.651855H7.26562C6.73136 0.651855 6.29688 1.077 6.29688 1.59978V2.5477H5.32812V1.59978C5.32812 1.077 4.89364 0.651855 4.35938 0.651855H3.39062C2.85636 0.651855 2.42188 1.077 2.42188 1.59978V2.5477H1.9375C1.13634 2.5477 0.484375 3.18565 0.484375 3.96958V20.0843C0.484375 20.8682 1.13634 21.5062 1.9375 21.5062H29.0625C29.8637 21.5062 30.5156 20.8682 30.5156 20.0843V11.079V8.23524V7.28731V4.44355V3.96958C30.5156 3.18565 29.8637 2.5477 29.0625 2.5477ZM11.1406 1.59978H12.1094L12.1099 4.44355H11.1406V1.59978ZM7.26562 1.59978H8.23438L8.23486 4.44355H7.26562V1.59978ZM3.39062 1.59978H4.35938L4.35986 4.44355H3.39062V1.59978ZM2.42188 16.7665H1.45312V15.8186H2.42188V16.7665ZM17.4375 20.5582H15.5V19.6103H17.4375V20.5582ZM22.2812 20.5582H20.3438V19.6103H22.2812V20.5582ZM29.5469 10.1311H28.5781V9.18316H29.5469V10.1311ZM29.5469 8.23524H27.6094V9.18316H23.25V7.28731H22.2812V6.33939H27.6094V7.28731H29.5469V8.23524ZM15.5 14.8707V8.23524H22.2812V14.8707H15.5ZM28.5781 6.33939V5.39147H29.5469V6.33939H28.5781ZM27.6094 4.44355V5.39147H21.3125V7.28731H20.3438V6.33939H19.375V7.28731H18.4062V6.33939H17.4375V7.28731H16.4688V6.33939H15.5V7.28731H14.5312V8.23524H12.5938V6.33939H7.75V7.28731H11.625V9.18316H14.5312V10.1311H10.6562V8.23524H5.239C5.03847 7.68497 4.50566 7.28731 3.875 7.28731C3.07384 7.28731 2.42188 7.92527 2.42188 8.7092C2.42188 9.49313 3.07384 10.1311 3.875 10.1311C4.50566 10.1311 5.03847 9.73343 5.239 9.18316H9.6875V11.079H14.5312V12.0269H13.5625V12.9749H14.5312V13.9228H13.5625V14.8707H14.5312V15.8186H15.5V16.7665H16.4688V15.8186H17.4375V16.7665H18.4062V15.8186H19.375V16.7665H20.3438V15.8186H21.3125V16.7665H22.2812V15.8186H23.25V14.8707H24.2188V13.9228H23.25V12.9749H24.2188V12.0269H23.25V10.1311H27.6094V11.079H29.5469V20.0843C29.5469 20.3454 29.3299 20.5582 29.0625 20.5582H23.25V18.6624H19.375V20.5582H18.4062V18.6624H14.5312V20.5582H1.9375C1.67013 20.5582 1.45312 20.3454 1.45312 20.0843V17.7145H2.42188V18.6624H6.29688V17.7145H7.26562V18.6624H11.1406V17.7145H12.1094V16.7665H11.1406V15.8186H12.1094V14.8707H11.1406V13.9228H7.26562V14.8707H6.29688V13.9228H2.42188V14.8707H1.45312V3.96958C1.45312 3.70843 1.67013 3.49562 1.9375 3.49562H2.42188V4.44355C2.42188 4.96633 2.85636 5.39147 3.39062 5.39147H4.35938C4.89364 5.39147 5.32812 4.96633 5.32812 4.44355V3.49562H6.29688V4.44355C6.29688 4.96633 6.73136 5.39147 7.26562 5.39147H8.23438C8.76864 5.39147 9.20312 4.96633 9.20312 4.44355V3.49562H10.1719V4.44355C10.1719 4.96633 10.6064 5.39147 11.1406 5.39147H12.1094C12.6436 5.39147 13.0781 4.96633 13.0781 4.44355V3.49562H29.0625C29.3299 3.49562 29.5469 3.70843 29.5469 3.96958V4.44355H27.6094ZM4.35938 8.7092C4.35938 8.97035 4.14237 9.18316 3.875 9.18316C3.60763 9.18316 3.39062 8.97035 3.39062 8.7092C3.39062 8.44805 3.60763 8.23524 3.875 8.23524C4.14237 8.23524 4.35938 8.44805 4.35938 8.7092ZM3.39062 17.7145V14.8707H5.32812V17.7145H3.39062ZM6.29688 15.8186H7.26562V16.7665H6.29688V15.8186ZM8.23438 17.7145V14.8707H10.1719V17.7145H8.23438Z" fill="black"/>
<path d="M16.4688 13.9227H21.3125V9.18311H16.4688V13.9227ZM17.4375 10.131H20.3438V12.9748H17.4375V10.131Z" fill="black"/>
<path d="M5.8125 6.33936H6.78125V7.28728H5.8125V6.33936Z" fill="black"/>
<path d="M28.0938 19.6105C28.3613 19.6105 28.5781 19.3983 28.5781 19.1366C28.5781 18.8748 28.3613 18.6626 28.0938 18.6626C27.8262 18.6626 27.6094 18.8748 27.6094 19.1366C27.6094 19.3983 27.8262 19.6105 28.0938 19.6105Z" fill="black"/>
<path d="M26.1562 19.6105C26.4238 19.6105 26.6406 19.3983 26.6406 19.1366C26.6406 18.8748 26.4238 18.6626 26.1562 18.6626C25.8887 18.6626 25.6719 18.8748 25.6719 19.1366C25.6719 19.3983 25.8887 19.6105 26.1562 19.6105Z" fill="black"/>
<path d="M28.0938 17.7145C28.3613 17.7145 28.5781 17.5023 28.5781 17.2406C28.5781 16.9788 28.3613 16.7666 28.0938 16.7666C27.8262 16.7666 27.6094 16.9788 27.6094 17.2406C27.6094 17.5023 27.8262 17.7145 28.0938 17.7145Z" fill="black"/>
<path d="M26.1562 17.7145C26.4238 17.7145 26.6406 17.5023 26.6406 17.2406C26.6406 16.9788 26.4238 16.7666 26.1562 16.7666C25.8887 16.7666 25.6719 16.9788 25.6719 17.2406C25.6719 17.5023 25.8887 17.7145 26.1562 17.7145Z" fill="black"/>
</svg>
