<svg width="33" height="21" viewBox="0 0 33 21" fill="none" xmlns="http://www.w3.org/2000/svg">
<path d="M31.2063 4.18097H26.1592C25.8921 4.18097 25.6756 4.3955 25.6756 4.66023C25.6756 4.92496 25.8921 5.13949 26.1592 5.13949H31.2063C31.662 5.13949 32.0327 5.50685 32.0327 5.95839V19.192C32.0327 19.6434 31.662 20.0108 31.2063 20.0108H1.7936C1.33792 20.0108 0.967246 19.6434 0.967246 19.192V5.95826C0.967246 5.50672 1.33792 5.13936 1.7936 5.13936H23.5799C23.8471 5.13936 24.0636 4.92483 24.0636 4.6601C24.0636 4.39537 23.8471 4.18085 23.5799 4.18085H18.6332V3.03679C18.6332 2.48128 18.1771 2.02929 17.6165 2.02929H16.9244V1.21927C16.9244 -0.102328 16.3486 0.00554232 16.3486 0.00554232C16.3486 0.00554232 15.9571 0.000871372 15.9571 1.21933C15.9571 2.43778 15.9571 2.02935 15.9571 2.02935H15.3617C14.8011 2.02935 14.345 2.48134 14.345 3.03686V4.18091H1.7936C0.804567 4.18097 0 4.97822 0 5.95826V19.1918C0 20.1718 0.804567 20.9691 1.7936 20.9691H31.2064C32.1954 20.9691 33 20.1719 33 19.1918V5.95826C32.9999 4.97822 32.1954 4.18097 31.2063 4.18097ZM15.3617 2.98787H17.6164C17.6437 2.98787 17.6659 3.00991 17.6659 3.03692V4.18097H15.3123V3.03692C15.3123 3.00991 15.3345 2.98787 15.3617 2.98787Z" fill="black"/>
<path d="M5.01307 6.43701H2.87774C2.44623 6.43701 2.09521 6.78483 2.09521 7.21242V9.1596C2.09528 9.58719 2.44629 9.93501 2.87774 9.93501H5.01307C5.44458 9.93501 5.79559 9.58719 5.79559 9.1596V7.21242C5.79559 6.78483 5.44458 6.43701 5.01307 6.43701ZM4.82834 8.97656H3.06253V7.39553H4.82834V8.97656Z" fill="black"/>
<path d="M9.19813 6.43701H7.0628C6.63128 6.43701 6.28027 6.78483 6.28027 7.21242V9.1596C6.28027 9.58719 6.63128 9.93501 7.0628 9.93501H9.19813C9.62964 9.93501 9.98071 9.58719 9.98071 9.1596V7.21242C9.98065 6.78483 9.62957 6.43701 9.19813 6.43701ZM9.0134 8.97649H7.24752V7.39546H9.0134V8.97649Z" fill="black"/>
<path d="M13.3829 6.43701H11.2476C10.8161 6.43701 10.4651 6.78483 10.4651 7.21242V9.1596C10.4651 9.58719 10.8161 9.93501 11.2476 9.93501H13.3829C13.8145 9.93501 14.1655 9.58719 14.1655 9.1596V7.21242C14.1655 6.78483 13.8145 6.43701 13.3829 6.43701ZM13.1982 8.97649H11.4323V7.39546H13.1982V8.97649Z" fill="black"/>
<path d="M17.5678 6.43701H15.4324C15.0009 6.43701 14.6499 6.78483 14.6499 7.21242V9.1596C14.6499 9.58719 15.0009 9.93501 15.4324 9.93501H17.5678C17.9993 9.93501 18.3503 9.58719 18.3503 9.1596V7.21242C18.3503 6.78483 17.9992 6.43701 17.5678 6.43701ZM17.383 8.97649H15.6171V7.39546H17.383V8.97649Z" fill="black"/>
<path d="M21.7523 6.43701H19.617C19.1855 6.43701 18.8345 6.78483 18.8345 7.21242V9.1596C18.8345 9.58719 19.1855 9.93501 19.617 9.93501H21.7523C22.1838 9.93501 22.5349 9.58719 22.5349 9.1596V7.21242C22.5349 6.78483 22.1838 6.43701 21.7523 6.43701ZM21.5675 8.97649H19.8017V7.39546H21.5675V8.97649Z" fill="black"/>
<path d="M25.9371 6.43701H23.8018C23.3703 6.43701 23.0193 6.78483 23.0193 7.21242V9.1596C23.0193 9.58719 23.3703 9.93501 23.8018 9.93501H25.9371C26.3687 9.93501 26.7197 9.58719 26.7197 9.1596V7.21242C26.7197 6.78483 26.3687 6.43701 25.9371 6.43701ZM25.7525 8.97649H23.9866V7.39546H25.7525V8.97649Z" fill="black"/>
<path d="M30.1219 6.43701H27.9866C27.5551 6.43701 27.2041 6.78483 27.2041 7.21242V9.1596C27.2041 9.58719 27.5551 9.93501 27.9866 9.93501H30.1219C30.5535 9.93501 30.9045 9.58719 30.9045 9.1596V7.21242C30.9045 6.78483 30.5535 6.43701 30.1219 6.43701ZM29.9372 8.97656H28.1713V7.39553H29.9372V8.97656Z" fill="black"/>
<path d="M6.84218 11.0381H2.87774C2.44623 11.0381 2.09521 11.3859 2.09521 11.8135V13.7607C2.09521 14.1883 2.44623 14.5361 2.87774 14.5361H6.84218C7.27369 14.536 7.6247 14.1882 7.6247 13.7607V11.8135C7.6247 11.3859 7.27369 11.0381 6.84218 11.0381ZM6.65746 13.5776H3.06253V11.9965H6.65746V13.5776Z" fill="black"/>
<path d="M30.122 11.0381H26.1575C25.726 11.0381 25.375 11.386 25.375 11.8135V13.7607C25.375 14.1883 25.726 14.5361 26.1575 14.5361H30.122C30.5535 14.5361 30.9045 14.1883 30.9045 13.7607V11.8135C30.9045 11.3859 30.5535 11.0381 30.122 11.0381ZM29.9372 13.5776H26.3423V11.9966H29.9372V13.5776Z" fill="black"/>
<path d="M11.1071 11.0381H8.97173C8.54022 11.0381 8.18921 11.386 8.18921 11.8135V13.7607C8.18921 14.1883 8.54022 14.5361 8.97173 14.5361H11.1071C11.5386 14.5361 11.8897 14.1883 11.8897 13.7607V11.8135C11.8897 11.3859 11.5386 11.0381 11.1071 11.0381ZM10.9223 13.5776H9.15646V11.9966H10.9223V13.5776Z" fill="black"/>
<path d="M15.4142 11.0381H13.2789C12.8473 11.0381 12.4963 11.386 12.4963 11.8135V13.7607C12.4963 14.1883 12.8473 14.5361 13.2789 14.5361H15.4142C15.8457 14.5361 16.1968 14.1883 16.1968 13.7607V11.8135C16.1968 11.3859 15.8457 11.0381 15.4142 11.0381ZM15.2295 13.5776H13.4636V11.9966H15.2295V13.5776Z" fill="black"/>
<path d="M19.7211 11.0381H17.5857C17.1542 11.0381 16.8032 11.386 16.8032 11.8135V13.7607C16.8032 14.1883 17.1542 14.5361 17.5857 14.5361H19.7211C20.1526 14.5361 20.5037 14.1883 20.5037 13.7607V11.8135C20.5037 11.3859 20.1526 11.0381 19.7211 11.0381ZM19.5364 13.5776H17.7705V11.9966H19.5364V13.5776Z" fill="black"/>
<path d="M24.0282 11.0381H21.8929C21.4614 11.0381 21.1104 11.386 21.1104 11.8135V13.7607C21.1104 14.1883 21.4614 14.5361 21.8929 14.5361H24.0282C24.4597 14.5361 24.8108 14.1883 24.8108 13.7607V11.8135C24.8108 11.3859 24.4597 11.0381 24.0282 11.0381ZM23.8435 13.5776H22.0776V11.9966H23.8435V13.5776Z" fill="black"/>
<path d="M25.56 15.6392H11.3291C11.062 15.6392 10.8455 15.8537 10.8455 16.1184C10.8455 16.3831 11.062 16.5977 11.3291 16.5977H25.3752V18.1787H7.62496V16.5977H8.75766C9.02482 16.5977 9.24131 16.3831 9.24131 16.1184C9.24131 15.8537 9.02482 15.6392 8.75766 15.6392H7.44024C7.00873 15.6392 6.65771 15.987 6.65771 16.4146V18.3617C6.65765 18.7893 7.00866 19.1372 7.44017 19.1372H25.56C25.9915 19.1372 26.3425 18.7893 26.3425 18.3617V16.4146C26.3425 15.987 25.9915 15.6392 25.56 15.6392Z" fill="black"/>
<path d="M5.01307 15.6392H2.87774C2.44623 15.6392 2.09521 15.987 2.09521 16.4146V18.3617C2.09521 18.7893 2.44623 19.1372 2.87774 19.1372H5.01307C5.44458 19.1372 5.79559 18.7893 5.79559 18.3617V16.4146C5.79559 15.987 5.44458 15.6392 5.01307 15.6392ZM4.82834 18.1786H3.06253V16.5976H4.82834V18.1786Z" fill="black"/>
<path d="M30.1219 15.6392H27.9866C27.5551 15.6392 27.2041 15.987 27.2041 16.4146V18.3617C27.2041 18.7893 27.5551 19.1372 27.9866 19.1372H30.1219C30.5535 19.1372 30.9045 18.7893 30.9045 18.3617V16.4146C30.9044 15.987 30.5534 15.6392 30.1219 15.6392ZM29.9372 18.1786H28.1713V16.5976H29.9372V18.1786Z" fill="black"/>
</svg>
