<svg width="37" height="37" viewBox="0 0 37 37" fill="none" xmlns="http://www.w3.org/2000/svg">
<path d="M16.4448 6.45632L17.0865 7.41832C17.5049 7.13869 17.9968 6.98943 18.5001 6.98943C19.0033 6.98943 19.4952 7.13869 19.9136 7.41832L20.5553 6.45632C19.9469 6.04992 19.2317 5.83301 18.5001 5.83301C17.7684 5.83301 17.0532 6.04992 16.4448 6.45632Z" fill="black"/>
<path d="M23.9841 2.63051C22.3086 1.69203 20.4203 1.19922 18.5 1.19922C16.5796 1.19922 14.6913 1.69203 13.0159 2.63051L13.5778 3.64223C15.0817 2.8004 16.7764 2.35836 18.5 2.35836C20.2235 2.35836 21.9182 2.8004 23.4221 3.64223L23.9841 2.63051Z" fill="black"/>
<path d="M22.2897 4.66877C21.1682 3.91855 19.8493 3.51807 18.5001 3.51807C17.1508 3.51807 15.8319 3.91855 14.7104 4.66877L15.3522 5.63077C16.2837 5.00746 17.3792 4.67472 18.5001 4.67472C19.6209 4.67472 20.7164 5.00746 21.6479 5.63077L22.2897 4.66877Z" fill="black"/>
<path d="M9.25 18.5V26.5938C9.25 29.047 10.2246 31.3998 11.9593 33.1345C13.694 34.8692 16.0467 35.8438 18.5 35.8438C20.9533 35.8438 23.306 34.8692 25.0407 33.1345C26.7754 31.3998 27.75 29.047 27.75 26.5938V18.5C27.75 16.0467 26.7754 13.694 25.0407 11.9593C23.306 10.2246 20.9533 9.25 18.5 9.25C16.0467 9.25 13.694 10.2246 11.9593 11.9593C10.2246 13.694 9.25 16.0467 9.25 18.5ZM18.5 16.7656C18.7287 16.7656 18.9522 16.8334 19.1424 16.9605C19.3325 17.0875 19.4807 17.2681 19.5682 17.4794C19.6557 17.6907 19.6786 17.9232 19.634 18.1474C19.5894 18.3717 19.4793 18.5778 19.3176 18.7395C19.1559 18.9012 18.9499 19.0113 18.7256 19.0559C18.5013 19.1005 18.2688 19.0776 18.0575 18.9901C17.8462 18.9026 17.6657 18.7544 17.5386 18.5643C17.4116 18.3741 17.3438 18.1506 17.3438 17.9219C17.3438 17.6152 17.4656 17.3211 17.6824 17.1043C17.8992 16.8874 18.1933 16.7656 18.5 16.7656ZM17.9219 10.4357V15.6915C17.3769 15.8322 16.902 16.1668 16.5861 16.6327C16.2702 17.0985 16.135 17.6636 16.2059 18.2219C16.2769 18.7803 16.549 19.2936 16.9713 19.6657C17.3936 20.0378 17.9372 20.243 18.5 20.243C19.0628 20.243 19.6064 20.0378 20.0287 19.6657C20.451 19.2936 20.7231 18.7803 20.7941 18.2219C20.865 17.6636 20.7298 17.0985 20.4139 16.6327C20.098 16.1668 19.6231 15.8322 19.0781 15.6915V10.4357C21.1176 10.5827 23.0259 11.4958 24.4199 12.9916C25.814 14.4875 26.5906 16.4553 26.5938 18.5V26.5938C26.5938 28.7403 25.741 30.799 24.2231 32.3169C22.7053 33.8348 20.6466 34.6875 18.5 34.6875C16.3534 34.6875 14.2947 33.8348 12.7769 32.3169C11.259 30.799 10.4062 28.7403 10.4062 26.5938V18.5C10.4094 16.4553 11.186 14.4875 12.5801 12.9916C13.9741 11.4958 15.8824 10.5827 17.9219 10.4357Z" fill="black"/>
</svg>
