<svg width="38" height="25" viewBox="0 0 38 25" fill="none" xmlns="http://www.w3.org/2000/svg">
<path d="M35.5522 2.35421H31.4324V1.76566C31.4324 0.792192 30.6402 0 29.6667 0H18.4842C17.5108 0 16.7186 0.792192 16.7186 1.76566V4.11987H16.4449L15.4426 2.61612C15.3331 2.4525 15.1495 2.35421 14.9529 2.35421H2.59329C1.61983 2.35421 0.827637 3.1464 0.827637 4.11987V19.4222C0.827637 20.3957 1.61983 21.1879 2.59329 21.1879H6.71316V24.1307C6.71316 24.4555 6.97625 24.7192 7.30172 24.7192H26.1354C26.4609 24.7192 26.724 24.4555 26.724 24.1307V21.1879H35.5522C36.5257 21.1879 37.3179 20.3957 37.3179 19.4222V4.11987C37.3179 3.1464 36.5257 2.35421 35.5522 2.35421ZM17.8957 1.76566C17.8957 1.44137 18.1593 1.17711 18.4842 1.17711H29.6667C29.9916 1.17711 30.2553 1.44137 30.2553 1.76566V2.35421H23.1926C22.9961 2.35421 22.8124 2.4525 22.703 2.61612L21.7007 4.11987H17.8957V1.76566ZM25.5469 23.5421H7.89027V21.1879H9.06738V22.365H10.2445V21.1879H11.4216V22.365H12.5987V21.1879H13.7758V22.365H14.9529V21.1879H16.13V22.365H17.3071V21.1879H18.4842V22.365H19.6613V21.1879H20.8384V22.365H22.0155V21.1879H23.1926V22.365H24.3697V21.1879H25.5469V23.5421ZM36.1408 19.4222C36.1408 19.7465 35.8771 20.0108 35.5522 20.0108H2.59329C2.26841 20.0108 2.00474 19.7465 2.00474 19.4222V4.11987C2.00474 3.79558 2.26841 3.53132 2.59329 3.53132H14.638L15.6403 5.03507C15.7498 5.19869 15.9334 5.29697 16.13 5.29697H22.0155C22.2121 5.29697 22.3957 5.19869 22.5052 5.03507L23.5075 3.53132H35.5522C35.8771 3.53132 36.1408 3.79558 36.1408 4.11987V19.4222Z" fill="black"/>
<path d="M10.2445 4.7085C6.35006 4.7085 3.18188 7.87667 3.18188 11.7711C3.18188 15.6656 6.35006 18.8338 10.2445 18.8338C14.139 18.8338 17.3072 15.6656 17.3072 11.7711C17.3072 7.87667 14.139 4.7085 10.2445 4.7085ZM10.2445 11.1826C10.5694 11.1826 10.8331 11.4468 10.8331 11.7711C10.8331 12.0954 10.5694 12.3597 10.2445 12.3597C9.91964 12.3597 9.65597 12.0954 9.65597 11.7711C9.65597 11.4468 9.91964 11.1826 10.2445 11.1826ZM10.5523 10.0367C10.5411 10.0349 10.5288 10.0349 10.5176 10.0331C9.96201 9.47401 9.65597 8.73361 9.65597 7.94554C9.65597 7.17453 9.9526 6.45238 10.4846 5.89796C11.5458 5.94093 12.5334 6.26404 13.3786 6.79845C12.7529 6.9962 12.1785 7.3405 11.7012 7.81782C11.0885 8.42991 10.6959 9.20033 10.5523 10.0367ZM9.23515 10.3262C9.22514 10.3333 9.2169 10.3421 9.20749 10.3492C8.42 10.3462 7.68019 10.039 7.12283 9.48225C6.57842 8.93784 6.27767 8.21804 6.26119 7.45115C7.00571 6.76431 7.92444 6.26639 8.94558 6.03509C8.64189 6.61776 8.47886 7.2687 8.47886 7.94554C8.47886 8.81071 8.74547 9.63409 9.23515 10.3262ZM6.29062 10.3145C6.90272 10.9266 7.67372 11.3197 8.51005 11.4633C8.50829 11.4745 8.50829 11.4869 8.50652 11.4986C7.9474 12.053 7.207 12.3597 6.41893 12.3597C5.64851 12.3597 4.92577 12.063 4.37135 11.531C4.41431 10.4698 4.73743 9.48225 5.27184 8.63767C5.469 9.26331 5.8133 9.83714 6.29062 10.3145ZM9.9367 13.5056C9.94789 13.5074 9.96025 13.5074 9.97143 13.5091C10.527 14.0682 10.8331 14.8086 10.8331 15.5967C10.8331 16.3677 10.5364 17.0899 10.0044 17.6443C8.94323 17.6013 7.95564 17.2782 7.11047 16.7438C7.73611 16.5461 8.31053 16.2018 8.78785 15.7244C9.40053 15.1123 9.7931 14.3419 9.9367 13.5056ZM11.2539 13.216C11.2639 13.209 11.2721 13.2001 11.2815 13.1931C12.069 13.196 12.8088 13.5032 13.3662 14.06C13.9106 14.6044 14.2114 15.3242 14.2278 16.0911C13.4833 16.7779 12.5646 17.2759 11.5435 17.5072C11.8471 16.9245 12.0102 16.2736 12.0102 15.5967C12.0102 14.7315 11.7436 13.9082 11.2539 13.216ZM14.1984 13.2278C13.5863 12.6157 12.8153 12.2225 11.979 12.0789C11.9807 12.0678 11.9807 12.0554 11.9825 12.0436C12.5416 11.4892 13.282 11.1826 14.0701 11.1826C14.8405 11.1826 15.5633 11.4792 16.1177 12.0113C16.0747 13.0724 15.7516 14.06 15.2172 14.9046C15.02 14.279 14.6757 13.7051 14.1984 13.2278ZM14.0701 10.0055C13.2049 10.0055 12.3821 10.2727 11.6894 10.7618C11.6824 10.7518 11.6735 10.7435 11.6665 10.7341C11.6694 9.94662 11.976 9.20739 12.5334 8.65003C13.0778 8.10562 13.7976 7.80487 14.5651 7.78839C15.2519 8.53291 15.7498 9.45164 15.9811 10.4728C15.3979 10.1685 14.7464 10.0055 14.0701 10.0055ZM4.50789 13.0695C5.09115 13.3738 5.74268 13.5368 6.41893 13.5368C7.2841 13.5368 8.10689 13.2696 8.79962 12.7805C8.80668 12.7905 8.81551 12.7987 8.82257 12.8082C8.81963 13.5956 8.513 14.3349 7.95564 14.8922C7.41122 15.4366 6.69143 15.7374 5.92395 15.7539C5.23711 15.0099 4.7392 14.0912 4.50789 13.0695Z" fill="black"/>
<path d="M27.901 4.7085C24.0066 4.7085 20.8384 7.87667 20.8384 11.7711C20.8384 15.6656 24.0066 18.8338 27.901 18.8338C31.7955 18.8338 34.9636 15.6656 34.9636 11.7711C34.9636 7.87667 31.7955 4.7085 27.901 4.7085ZM27.901 11.1826C28.2259 11.1826 28.4896 11.4468 28.4896 11.7711C28.4896 12.0954 28.2259 12.3597 27.901 12.3597C27.5761 12.3597 27.3125 12.0954 27.3125 11.7711C27.3125 11.4468 27.5761 11.1826 27.901 11.1826ZM28.2088 10.0367C28.1976 10.0349 28.1853 10.0349 28.1741 10.0331C27.6185 9.47401 27.3125 8.73361 27.3125 7.94554C27.3125 7.17453 27.6091 6.45238 28.1411 5.89796C29.2023 5.94093 30.1899 6.26404 31.0351 6.79845C30.4094 6.9962 29.835 7.3405 29.3577 7.81782C28.745 8.42991 28.3524 9.20033 28.2088 10.0367ZM26.8916 10.3262C26.8816 10.3333 26.8734 10.3421 26.864 10.3492C26.0765 10.3462 25.3367 10.039 24.7793 9.48225C24.2349 8.93784 23.9342 8.21804 23.9177 7.45115C24.6622 6.76431 25.5809 6.26639 26.6021 6.03509C26.2984 6.61776 26.1354 7.2687 26.1354 7.94554C26.1354 8.81071 26.402 9.63409 26.8916 10.3262ZM23.9471 10.3145C24.5592 10.9266 25.3302 11.3197 26.1665 11.4633C26.1648 11.4745 26.1648 11.4869 26.163 11.4986C25.6039 12.053 24.8635 12.3597 24.0754 12.3597C23.305 12.3597 22.5823 12.063 22.0278 11.531C22.0708 10.4698 22.3939 9.48225 22.9283 8.63767C23.1255 9.26331 23.4698 9.83714 23.9471 10.3145ZM27.5932 13.5056C27.6044 13.5074 27.6167 13.5074 27.6279 13.5091C28.1835 14.0682 28.4896 14.8086 28.4896 15.5967C28.4896 16.3677 28.1929 17.0899 27.6609 17.6443C26.5997 17.6013 25.6121 17.2782 24.767 16.7438C25.3926 16.5461 25.967 16.2018 26.4443 15.7244C27.057 15.1123 27.4496 14.3419 27.5932 13.5056ZM28.9104 13.216C28.9204 13.209 28.9286 13.2001 28.938 13.1931C29.7255 13.196 30.4653 13.5032 31.0227 14.06C31.5671 14.6044 31.8679 15.3242 31.8843 16.0911C31.1398 16.7779 30.2211 17.2759 29.1999 17.5072C29.5036 16.9245 29.6667 16.2736 29.6667 15.5967C29.6667 14.7315 29.4001 13.9082 28.9104 13.216ZM31.8549 13.2278C31.2428 12.6157 30.4718 12.2225 29.6355 12.0789C29.6372 12.0678 29.6372 12.0554 29.639 12.0436C30.1981 11.4892 30.9385 11.1826 31.7266 11.1826C32.497 11.1826 33.2198 11.4792 33.7742 12.0113C33.7312 13.0724 33.4081 14.06 32.8737 14.9046C32.6765 14.279 32.3322 13.7051 31.8549 13.2278ZM31.7266 10.0055C30.8614 10.0055 30.0386 10.2727 29.3459 10.7618C29.3388 10.7518 29.33 10.7435 29.323 10.7341C29.3259 9.94662 29.6325 9.20739 30.1899 8.65003C30.7343 8.10562 31.4541 7.80487 32.2216 7.78839C32.9084 8.53291 33.4063 9.45164 33.6376 10.4728C33.0544 10.1685 32.4028 10.0055 31.7266 10.0055ZM22.1644 13.0695C22.7476 13.3738 23.3992 13.5368 24.0754 13.5368C24.9406 13.5368 25.7634 13.2696 26.4561 12.7805C26.4632 12.7905 26.472 12.7987 26.4791 12.8082C26.4761 13.5956 26.1695 14.3349 25.6121 14.8922C25.0677 15.4366 24.3479 15.7374 23.5804 15.7539C22.8936 15.0099 22.3957 14.0912 22.1644 13.0695Z" fill="black"/>
<path d="M3.18188 4.7085H4.35899V5.8856H3.18188V4.7085Z" fill="black"/>
<path d="M3.18188 17.6562H4.35899V18.8334H3.18188V17.6562Z" fill="black"/>
<path d="M33.7866 4.7085H34.9637V5.8856H33.7866V4.7085Z" fill="black"/>
<path d="M33.7866 17.6562H34.9637V18.8334H33.7866V17.6562Z" fill="black"/>
</svg>
