<svg width="40" height="40" viewBox="0 0 40 40" fill="none" xmlns="http://www.w3.org/2000/svg">
<path d="M31.6331 34.7567H8.36719C7.53915 34.7552 6.74543 34.4257 6.15992 33.8402C5.57441 33.2546 5.24484 32.4609 5.24341 31.6329V8.36695C5.24484 7.53891 5.57441 6.74519 6.15992 6.15968C6.74543 5.57416 7.53915 5.24459 8.36719 5.24316H31.6331C32.4612 5.24459 33.2549 5.57416 33.8404 6.15968C34.4259 6.74519 34.7555 7.53891 34.7569 8.36695V31.6329C34.7555 32.4609 34.4259 33.2546 33.8404 33.8402C33.2549 34.4257 32.4612 34.7552 31.6331 34.7567ZM8.36719 6.32424C7.82578 6.32539 7.30688 6.54097 6.92404 6.9238C6.54121 7.30663 6.32563 7.82554 6.32449 8.36695V31.6329C6.32563 32.1743 6.54121 32.6932 6.92404 33.076C7.30688 33.4589 7.82578 33.6744 8.36719 33.6756H31.6331C32.1745 33.6744 32.6934 33.4589 33.0763 33.076C33.4591 32.6932 33.6747 32.1743 33.6758 31.6329V8.36695C33.6747 7.82554 33.4591 7.30663 33.0763 6.9238C32.6934 6.54097 32.1745 6.32539 31.6331 6.32424H8.36719Z" fill="black"/>
<path d="M23.7188 30.8809H22.1297C21.9863 30.8809 21.8488 30.8239 21.7474 30.7226C21.6461 30.6212 21.5891 30.4837 21.5891 30.3403C21.5891 30.197 21.6461 30.0595 21.7474 29.9581C21.8488 29.8568 21.9863 29.7998 22.1297 29.7998H23.7188C23.8622 29.7998 23.9997 29.8568 24.1011 29.9581C24.2024 30.0595 24.2594 30.197 24.2594 30.3403C24.2594 30.4837 24.2024 30.6212 24.1011 30.7226C23.9997 30.8239 23.8622 30.8809 23.7188 30.8809Z" fill="black"/>
<path d="M29.0486 30.8808H27.5027C27.3593 30.8808 27.2218 30.8239 27.1205 30.7225C27.0191 30.6211 26.9621 30.4836 26.9621 30.3403C26.9621 30.1969 27.0191 30.0594 27.1205 29.9581C27.2218 29.8567 27.3593 29.7997 27.5027 29.7997H29.0486C29.2478 29.7994 29.4388 29.7202 29.5796 29.5794C29.7204 29.4385 29.7997 29.2476 29.8 29.0484V10.9511C29.7997 10.7519 29.7204 10.561 29.5796 10.4201C29.4388 10.2793 29.2478 10.2 29.0486 10.1997H10.9513C10.7521 10.2 10.5612 10.2793 10.4204 10.4201C10.2795 10.561 10.2003 10.7519 10.2 10.9511V29.0484C10.2003 29.2476 10.2795 29.4385 10.4204 29.5794C10.5612 29.7202 10.7521 29.7994 10.9513 29.7997H12.9729C13.1163 29.7997 13.2538 29.8567 13.3552 29.9581C13.4565 30.0594 13.5135 30.1969 13.5135 30.3403C13.5135 30.4836 13.4565 30.6211 13.3552 30.7225C13.2538 30.8239 13.1163 30.8808 12.9729 30.8808H10.9513C10.4655 30.8802 9.99976 30.687 9.65623 30.3435C9.31271 30 9.11947 29.5342 9.1189 29.0484V10.9511C9.11947 10.4653 9.31271 9.99951 9.65623 9.65599C9.99976 9.31247 10.4655 9.11922 10.9513 9.11865H29.0486C29.5344 9.11922 30.0002 9.31247 30.3437 9.65599C30.6872 9.99951 30.8805 10.4653 30.8811 10.9511V29.0484C30.8805 29.5342 30.6872 30 30.3437 30.3435C30.0002 30.687 29.5344 30.8802 29.0486 30.8808Z" fill="black"/>
<path d="M18.3458 30.8809H16.7566C16.6132 30.8809 16.4758 30.8239 16.3744 30.7226C16.273 30.6212 16.2161 30.4837 16.2161 30.3403C16.2161 30.197 16.273 30.0595 16.3744 29.9581C16.4758 29.8568 16.6132 29.7998 16.7566 29.7998H18.3458C18.4892 29.7998 18.6266 29.8568 18.728 29.9581C18.8294 30.0595 18.8863 30.197 18.8863 30.3403C18.8863 30.4837 18.8294 30.6212 18.728 30.7226C18.6266 30.8239 18.4892 30.8809 18.3458 30.8809Z" fill="black"/>
<path d="M29.0476 6.3243C28.9043 6.3243 28.7668 6.26735 28.6654 6.16598C28.564 6.06461 28.5071 5.92712 28.5071 5.78376V1.6216C28.5071 1.47824 28.564 1.34075 28.6654 1.23938C28.7668 1.138 28.9043 1.08105 29.0476 1.08105C29.191 1.08105 29.3285 1.138 29.4298 1.23938C29.5312 1.34075 29.5882 1.47824 29.5882 1.6216V5.78376C29.5882 5.92712 29.5312 6.06461 29.4298 6.16598C29.3285 6.26735 29.191 6.3243 29.0476 6.3243Z" fill="black"/>
<path d="M24.5237 6.3243C24.3803 6.3243 24.2428 6.26735 24.1415 6.16598C24.0401 6.06461 23.9832 5.92712 23.9832 5.78376V1.6216C23.9832 1.47824 24.0401 1.34075 24.1415 1.23938C24.2428 1.138 24.3803 1.08105 24.5237 1.08105C24.6671 1.08105 24.8045 1.138 24.9059 1.23938C25.0073 1.34075 25.0642 1.47824 25.0642 1.6216V5.78376C25.0642 5.92712 25.0073 6.06461 24.9059 6.16598C24.8045 6.26735 24.6671 6.3243 24.5237 6.3243Z" fill="black"/>
<path d="M20 6.3243C19.8567 6.3243 19.7192 6.26735 19.6178 6.16598C19.5164 6.06461 19.4595 5.92712 19.4595 5.78376V1.6216C19.4595 1.47824 19.5164 1.34075 19.6178 1.23938C19.7192 1.138 19.8567 1.08105 20 1.08105C20.1434 1.08105 20.2809 1.138 20.3822 1.23938C20.4836 1.34075 20.5406 1.47824 20.5406 1.6216V5.78376C20.5406 5.92712 20.4836 6.06461 20.3822 6.16598C20.2809 6.26735 20.1434 6.3243 20 6.3243Z" fill="black"/>
<path d="M15.4761 6.3243C15.3327 6.3243 15.1952 6.26735 15.0939 6.16598C14.9925 6.06461 14.9355 5.92712 14.9355 5.78376V1.6216C14.9355 1.47824 14.9925 1.34075 15.0939 1.23938C15.1952 1.138 15.3327 1.08105 15.4761 1.08105C15.6194 1.08105 15.7569 1.138 15.8583 1.23938C15.9597 1.34075 16.0166 1.47824 16.0166 1.6216V5.78376C16.0166 5.92712 15.9597 6.06461 15.8583 6.16598C15.7569 6.26735 15.6194 6.3243 15.4761 6.3243Z" fill="black"/>
<path d="M10.9524 6.3243C10.809 6.3243 10.6716 6.26735 10.5702 6.16598C10.4688 6.06461 10.4119 5.92712 10.4119 5.78376V1.6216C10.4119 1.47824 10.4688 1.34075 10.5702 1.23938C10.6716 1.138 10.809 1.08105 10.9524 1.08105C11.0958 1.08105 11.2333 1.138 11.3346 1.23938C11.436 1.34075 11.4929 1.47824 11.4929 1.6216V5.78376C11.4929 5.92712 11.436 6.06461 11.3346 6.16598C11.2333 6.26735 11.0958 6.3243 10.9524 6.3243Z" fill="black"/>
<path d="M29.0476 38.919C28.9043 38.919 28.7668 38.8621 28.6654 38.7607C28.564 38.6593 28.5071 38.5219 28.5071 38.3785V34.2163C28.5071 34.073 28.564 33.9355 28.6654 33.8341C28.7668 33.7327 28.9043 33.6758 29.0476 33.6758C29.191 33.6758 29.3285 33.7327 29.4298 33.8341C29.5312 33.9355 29.5882 34.073 29.5882 34.2163V38.3785C29.5882 38.5219 29.5312 38.6593 29.4298 38.7607C29.3285 38.8621 29.191 38.919 29.0476 38.919Z" fill="black"/>
<path d="M24.5237 38.919C24.3803 38.919 24.2428 38.8621 24.1415 38.7607C24.0401 38.6593 23.9832 38.5219 23.9832 38.3785V34.2163C23.9832 34.073 24.0401 33.9355 24.1415 33.8341C24.2428 33.7327 24.3803 33.6758 24.5237 33.6758C24.6671 33.6758 24.8045 33.7327 24.9059 33.8341C25.0073 33.9355 25.0642 34.073 25.0642 34.2163V38.3785C25.0642 38.5219 25.0073 38.6593 24.9059 38.7607C24.8045 38.8621 24.6671 38.919 24.5237 38.919Z" fill="black"/>
<path d="M20 38.919C19.8567 38.919 19.7192 38.8621 19.6178 38.7607C19.5164 38.6593 19.4595 38.5219 19.4595 38.3785V34.2163C19.4595 34.073 19.5164 33.9355 19.6178 33.8341C19.7192 33.7327 19.8567 33.6758 20 33.6758C20.1434 33.6758 20.2809 33.7327 20.3822 33.8341C20.4836 33.9355 20.5406 34.073 20.5406 34.2163V38.3785C20.5406 38.5219 20.4836 38.6593 20.3822 38.7607C20.2809 38.8621 20.1434 38.919 20 38.919Z" fill="black"/>
<path d="M15.4761 38.919C15.3327 38.919 15.1952 38.8621 15.0939 38.7607C14.9925 38.6593 14.9355 38.5219 14.9355 38.3785V34.2163C14.9355 34.073 14.9925 33.9355 15.0939 33.8341C15.1952 33.7327 15.3327 33.6758 15.4761 33.6758C15.6194 33.6758 15.7569 33.7327 15.8583 33.8341C15.9597 33.9355 16.0166 34.073 16.0166 34.2163V38.3785C16.0166 38.5219 15.9597 38.6593 15.8583 38.7607C15.7569 38.8621 15.6194 38.919 15.4761 38.919Z" fill="black"/>
<path d="M10.9524 38.919C10.809 38.919 10.6716 38.8621 10.5702 38.7607C10.4688 38.6593 10.4119 38.5219 10.4119 38.3785V34.2163C10.4119 34.073 10.4688 33.9355 10.5702 33.8341C10.6716 33.7327 10.809 33.6758 10.9524 33.6758C11.0958 33.6758 11.2333 33.7327 11.3346 33.8341C11.436 33.9355 11.4929 34.073 11.4929 34.2163V38.3785C11.4929 38.5219 11.436 38.6593 11.3346 38.7607C11.2333 38.8621 11.0958 38.919 10.9524 38.919Z" fill="black"/>
<path d="M38.3782 29.5879H34.2161C34.0727 29.5879 33.9352 29.531 33.8339 29.4296C33.7325 29.3282 33.6755 29.1907 33.6755 29.0474C33.6755 28.904 33.7325 28.7665 33.8339 28.6652C33.9352 28.5638 34.0727 28.5068 34.2161 28.5068H38.3782C38.5216 28.5068 38.6591 28.5638 38.7605 28.6652C38.8618 28.7665 38.9188 28.904 38.9188 29.0474C38.9188 29.1907 38.8618 29.3282 38.7605 29.4296C38.6591 29.531 38.5216 29.5879 38.3782 29.5879Z" fill="black"/>
<path d="M38.3782 25.0645H34.2161C34.0727 25.0645 33.9352 25.0075 33.8339 24.9062C33.7325 24.8048 33.6755 24.6673 33.6755 24.5239C33.6755 24.3806 33.7325 24.2431 33.8339 24.1417C33.9352 24.0403 34.0727 23.9834 34.2161 23.9834H38.3782C38.5216 23.9834 38.6591 24.0403 38.7605 24.1417C38.8618 24.2431 38.9188 24.3806 38.9188 24.5239C38.9188 24.6673 38.8618 24.8048 38.7605 24.9062C38.6591 25.0075 38.5216 25.0645 38.3782 25.0645Z" fill="black"/>
<path d="M38.3782 20.5406H34.2161C34.0727 20.5406 33.9352 20.4836 33.8339 20.3822C33.7325 20.2809 33.6755 20.1434 33.6755 20C33.6755 19.8567 33.7325 19.7192 33.8339 19.6178C33.9352 19.5164 34.0727 19.4595 34.2161 19.4595H38.3782C38.5216 19.4595 38.6591 19.5164 38.7605 19.6178C38.8618 19.7192 38.9188 19.8567 38.9188 20C38.9188 20.1434 38.8618 20.2809 38.7605 20.3822C38.6591 20.4836 38.5216 20.5406 38.3782 20.5406Z" fill="black"/>
<path d="M38.3782 16.0166H34.2161C34.0727 16.0166 33.9352 15.9597 33.8339 15.8583C33.7325 15.7569 33.6755 15.6194 33.6755 15.4761C33.6755 15.3327 33.7325 15.1952 33.8339 15.0939C33.9352 14.9925 34.0727 14.9355 34.2161 14.9355H38.3782C38.5216 14.9355 38.6591 14.9925 38.7605 15.0939C38.8618 15.1952 38.9188 15.3327 38.9188 15.4761C38.9188 15.6194 38.8618 15.7569 38.7605 15.8583C38.6591 15.9597 38.5216 16.0166 38.3782 16.0166Z" fill="black"/>
<path d="M38.3782 11.4932H34.2161C34.0727 11.4932 33.9352 11.4362 33.8339 11.3349C33.7325 11.2335 33.6755 11.096 33.6755 10.9526C33.6755 10.8093 33.7325 10.6718 33.8339 10.5704C33.9352 10.4691 34.0727 10.4121 34.2161 10.4121H38.3782C38.5216 10.4121 38.6591 10.4691 38.7605 10.5704C38.8618 10.6718 38.9188 10.8093 38.9188 10.9526C38.9188 11.096 38.8618 11.2335 38.7605 11.3349C38.6591 11.4362 38.5216 11.4932 38.3782 11.4932Z" fill="black"/>
<path d="M5.78351 29.5879H1.62135C1.47799 29.5879 1.3405 29.531 1.23913 29.4296C1.13776 29.3282 1.08081 29.1907 1.08081 29.0474C1.08081 28.904 1.13776 28.7665 1.23913 28.6652C1.3405 28.5638 1.47799 28.5068 1.62135 28.5068H5.78351C5.92687 28.5068 6.06436 28.5638 6.16573 28.6652C6.2671 28.7665 6.32405 28.904 6.32405 29.0474C6.32405 29.1907 6.2671 29.3282 6.16573 29.4296C6.06436 29.531 5.92687 29.5879 5.78351 29.5879Z" fill="black"/>
<path d="M5.78351 25.0645H1.62135C1.47799 25.0645 1.3405 25.0075 1.23913 24.9062C1.13776 24.8048 1.08081 24.6673 1.08081 24.5239C1.08081 24.3806 1.13776 24.2431 1.23913 24.1417C1.3405 24.0403 1.47799 23.9834 1.62135 23.9834H5.78351C5.92687 23.9834 6.06436 24.0403 6.16573 24.1417C6.2671 24.2431 6.32405 24.3806 6.32405 24.5239C6.32405 24.6673 6.2671 24.8048 6.16573 24.9062C6.06436 25.0075 5.92687 25.0645 5.78351 25.0645Z" fill="black"/>
<path d="M5.78351 20.5406H1.62135C1.47799 20.5406 1.3405 20.4836 1.23913 20.3822C1.13776 20.2809 1.08081 20.1434 1.08081 20C1.08081 19.8567 1.13776 19.7192 1.23913 19.6178C1.3405 19.5164 1.47799 19.4595 1.62135 19.4595H5.78351C5.92687 19.4595 6.06436 19.5164 6.16573 19.6178C6.2671 19.7192 6.32405 19.8567 6.32405 20C6.32405 20.1434 6.2671 20.2809 6.16573 20.3822C6.06436 20.4836 5.92687 20.5406 5.78351 20.5406Z" fill="black"/>
<path d="M5.78351 16.0166H1.62135C1.47799 16.0166 1.3405 15.9597 1.23913 15.8583C1.13776 15.7569 1.08081 15.6194 1.08081 15.4761C1.08081 15.3327 1.13776 15.1952 1.23913 15.0939C1.3405 14.9925 1.47799 14.9355 1.62135 14.9355H5.78351C5.92687 14.9355 6.06436 14.9925 6.16573 15.0939C6.2671 15.1952 6.32405 15.3327 6.32405 15.4761C6.32405 15.6194 6.2671 15.7569 6.16573 15.8583C6.06436 15.9597 5.92687 16.0166 5.78351 16.0166Z" fill="black"/>
<path d="M5.78351 11.4932H1.62135C1.47799 11.4932 1.3405 11.4362 1.23913 11.3349C1.13776 11.2335 1.08081 11.096 1.08081 10.9526C1.08081 10.8093 1.13776 10.6718 1.23913 10.5704C1.3405 10.4691 1.47799 10.4121 1.62135 10.4121H5.78351C5.92687 10.4121 6.06436 10.4691 6.16573 10.5704C6.2671 10.6718 6.32405 10.8093 6.32405 10.9526C6.32405 11.096 6.2671 11.2335 6.16573 11.3349C6.06436 11.4362 5.92687 11.4932 5.78351 11.4932Z" fill="black"/>
</svg>
