<svg width="30" height="30" viewBox="0 0 30 30" fill="none" xmlns="http://www.w3.org/2000/svg">
<path d="M26.9792 30H4.02083C2.35454 30 1 28.6443 1 26.9792V4.02083C1 2.35575 2.35454 1 4.02083 1H26.9792C28.6455 1 30 2.35575 30 4.02083V26.9792C30 28.6443 28.6455 30 26.9792 30ZM4.02083 2.20833C3.02154 2.20833 2.20833 3.02154 2.20833 4.02083V26.9792C2.20833 27.9785 3.02154 28.7917 4.02083 28.7917H26.9792C27.9785 28.7917 28.7917 27.9785 28.7917 26.9792V4.02083C28.7917 3.02154 27.9785 2.20833 26.9792 2.20833H4.02083Z" fill="black"/>
<path d="M17.4 24C17.2836 24 17.1684 23.966 17.0676 23.898L10.0188 19.1427H7.2C6.5376 19.1427 6 18.5975 6 17.9284V13.0711C6 12.402 6.5376 11.8568 7.2 11.8568H10.0188L17.0676 7.10149C17.2524 6.97763 17.49 6.9667 17.6844 7.07113C17.8776 7.17678 18 7.382 18 7.60665V23.3928C18 23.6175 17.8776 23.8227 17.6832 23.9284C17.5944 23.9757 17.4972 24 17.4 24ZM7.2 13.0711V17.9284H10.2C10.3188 17.9284 10.434 17.9636 10.5324 18.0304L16.8 22.2587V8.74082L10.5324 12.9691C10.434 13.0359 10.3188 13.0711 10.2 13.0711H7.2Z" fill="black"/>
<path d="M20.6 20C20.4104 20 20.2232 19.8996 20.1068 19.7121C19.9184 19.4081 19.9856 18.9902 20.2592 18.78C21.224 18.034 21.8 16.8086 21.8 15.5002C21.8 14.1918 21.224 12.9664 20.2592 12.2204C19.9856 12.0102 19.9184 11.5923 20.1068 11.2883C20.2952 10.983 20.6696 10.9093 20.9408 11.1196C22.2296 12.1146 23 13.7525 23 15.5002C23 17.2479 22.2296 18.8858 20.9408 19.8808C20.8364 19.9612 20.7188 20 20.6 20Z" fill="black"/>
<path d="M20.5562 22C20.3341 22 20.1241 21.8601 20.0385 21.6322C19.9263 21.335 20.0674 20.9996 20.354 20.8839C22.5015 20.0108 23.8891 17.8978 23.8891 15.5003C23.8891 13.1028 22.5015 10.9898 20.354 10.1178C20.0674 10.001 19.9263 9.6656 20.0385 9.36953C20.1507 9.07114 20.4729 8.92195 20.7573 9.04107C23.3347 10.0877 25 12.6229 25 15.5003C25 18.3777 23.3347 20.9129 20.7584 21.9607C20.6918 21.9873 20.624 22 20.5562 22Z" fill="black"/>
</svg>
