<svg width="32" height="32" viewBox="0 0 32 32" fill="none" xmlns="http://www.w3.org/2000/svg">
<path d="M31.4667 1.8666H27.2V0.799935C27.2 0.505402 26.9612 0.266602 26.6667 0.266602H20.2667C19.9721 0.266602 19.7333 0.505402 19.7333 0.799935V1.8666H18.6667V1.33327C18.6667 1.03873 18.4279 0.799935 18.1333 0.799935H16C15.7055 0.799935 15.4667 1.03873 15.4667 1.33327V1.8666H14.4V0.799935C14.4 0.505402 14.1612 0.266602 13.8667 0.266602H9.6C9.30547 0.266602 9.06667 0.505402 9.06667 0.799935V1.8666H0.533333C0.2388 1.8666 0 2.1054 0 2.39994V31.1999C0 31.4945 0.2388 31.7333 0.533333 31.7333H31.4667C31.7612 31.7333 32 31.4945 32 31.1999V2.39994C32 2.1054 31.7612 1.8666 31.4667 1.8666ZM20.8 1.33327H26.1333V3.4666H20.8V1.33327ZM16.5333 1.8666H17.6V2.93327H16.5333V1.8666ZM10.1333 1.33327H13.3333V3.4666H10.1333V1.33327ZM30.9333 30.6666H1.06667V2.93327H9.06667V3.99994C9.06667 4.29447 9.30547 4.53327 9.6 4.53327H13.8667C14.1612 4.53327 14.4 4.29447 14.4 3.99994V2.93327H15.4667V3.4666C15.4667 3.76114 15.7055 3.99994 16 3.99994H18.1333C18.4279 3.99994 18.6667 3.76114 18.6667 3.4666V2.93327H19.7333V3.99994C19.7333 4.29447 19.9721 4.53327 20.2667 4.53327H26.6667C26.9612 4.53327 27.2 4.29447 27.2 3.99994V2.93327H30.9333V30.6666Z" fill="black"/>
<path d="M3.19997 6.13333C3.78907 6.13333 4.26663 5.65577 4.26663 5.06667C4.26663 4.47756 3.78907 4 3.19997 4C2.61086 4 2.1333 4.47756 2.1333 5.06667C2.1333 5.65577 2.61086 6.13333 3.19997 6.13333Z" fill="black"/>
<path d="M3.19997 29.6001C3.78907 29.6001 4.26663 29.1226 4.26663 28.5335C4.26663 27.9444 3.78907 27.4668 3.19997 27.4668C2.61086 27.4668 2.1333 27.9444 2.1333 28.5335C2.1333 29.1226 2.61086 29.6001 3.19997 29.6001Z" fill="black"/>
<path d="M28.8001 29.6001C29.3892 29.6001 29.8667 29.1226 29.8667 28.5335C29.8667 27.9444 29.3892 27.4668 28.8001 27.4668C28.211 27.4668 27.7334 27.9444 27.7334 28.5335C27.7334 29.1226 28.211 29.6001 28.8001 29.6001Z" fill="black"/>
<path d="M28.8001 6.13333C29.3892 6.13333 29.8667 5.65577 29.8667 5.06667C29.8667 4.47756 29.3892 4 28.8001 4C28.211 4 27.7334 4.47756 27.7334 5.06667C27.7334 5.65577 28.211 6.13333 28.8001 6.13333Z" fill="black"/>
<path d="M28.2667 7.7334H19.7334V16.2667H28.2667V7.7334ZM27.2001 15.2001H20.8001V8.80007H27.2001V15.2001Z" fill="black"/>
<path d="M26.6668 9.3335H21.3335V14.6668H26.6668V9.3335ZM25.6002 13.6002H22.4002V10.4002H25.6002V13.6002Z" fill="black"/>
<path d="M17.6001 8.2666H15.4668V9.33327H17.6001V8.2666Z" fill="black"/>
<path d="M17.6001 10.3999H15.4668V11.4666H17.6001V10.3999Z" fill="black"/>
<path d="M17.6001 12.5332H15.4668V13.5999H17.6001V12.5332Z" fill="black"/>
<path d="M17.6001 14.6665H15.4668V15.7332H17.6001V14.6665Z" fill="black"/>
<path d="M14.4002 8.2666H12.2668V9.33327H14.4002V8.2666Z" fill="black"/>
<path d="M14.4002 10.3999H12.2668V11.4666H14.4002V10.3999Z" fill="black"/>
<path d="M14.4002 12.5332H12.2668V13.5999H14.4002V12.5332Z" fill="black"/>
<path d="M14.4002 14.6665H12.2668V15.7332H14.4002V14.6665Z" fill="black"/>
<path d="M5.8667 19.4667H10.1334V7.7334H5.8667V19.4667ZM6.93337 8.80007H9.0667V18.4001H8.53337V9.86673H7.4667V18.4001H6.93337V8.80007Z" fill="black"/>
<path d="M8.00003 22.6665C6.82183 22.6665 5.8667 23.6216 5.8667 24.7998C5.8667 25.978 6.82183 26.9332 8.00003 26.9332C9.17823 26.9332 10.1334 25.978 10.1334 24.7998C10.1334 23.6216 9.17823 22.6665 8.00003 22.6665ZM8.00003 25.8665C7.4109 25.8665 6.93337 25.389 6.93337 24.7998C6.93337 24.2107 7.4109 23.7332 8.00003 23.7332C8.58917 23.7332 9.0667 24.2107 9.0667 24.7998C9.0667 25.389 8.58917 25.8665 8.00003 25.8665Z" fill="black"/>
<path d="M28.8 23.7334H18.1333V24.8001H28.8V23.7334Z" fill="black"/>
<path d="M22.3998 25.3335H11.7332V26.4002H22.3998V25.3335Z" fill="black"/>
<path d="M17.0665 23.7334H11.7332V24.8001H17.0665V23.7334Z" fill="black"/>
<path d="M28.8001 25.3335H23.4668V26.4002H28.8001V25.3335Z" fill="black"/>
<path d="M13.8668 21.0667C14.7505 21.0667 15.4668 20.3504 15.4668 19.4667C15.4668 18.583 14.7505 17.8667 13.8668 17.8667C12.9832 17.8667 12.2668 18.583 12.2668 19.4667C12.2668 20.3504 12.9832 21.0667 13.8668 21.0667ZM13.8668 18.9334C14.1614 18.9334 14.4002 19.1722 14.4002 19.4667C14.4002 19.7612 14.1614 20 13.8668 20C13.5723 20 13.3335 19.7612 13.3335 19.4667C13.3335 19.1722 13.5723 18.9334 13.8668 18.9334Z" fill="black"/>
<path d="M16.5332 19.4667C16.5332 20.3504 17.2495 21.0667 18.1332 21.0667C19.0169 21.0667 19.7332 20.3504 19.7332 19.4667C19.7332 18.583 19.0169 17.8667 18.1332 17.8667C17.2495 17.8667 16.5332 18.583 16.5332 19.4667ZM18.1332 18.9334C18.4277 18.9334 18.6665 19.1722 18.6665 19.4667C18.6665 19.7612 18.4277 20 18.1332 20C17.8387 20 17.5999 19.7612 17.5999 19.4667C17.5999 19.1722 17.8387 18.9334 18.1332 18.9334Z" fill="black"/>
<path d="M4.79982 9.8667H3.73315V17.3334H4.79982V9.8667Z" fill="black"/>
<path d="M22.4002 18.3999H21.3335V19.4666H22.4002V18.3999Z" fill="black"/>
<path d="M22.4002 20H21.3335V21.0667H22.4002V20Z" fill="black"/>
<path d="M24 18.3999H22.9333V19.4666H24V18.3999Z" fill="black"/>
<path d="M24 20H22.9333V21.0667H24V20Z" fill="black"/>
<path d="M25.5999 18.3999H24.5332V19.4666H25.5999V18.3999Z" fill="black"/>
<path d="M25.5999 20H24.5332V21.0667H25.5999V20Z" fill="black"/>
<path d="M27.2 18.3999H26.1333V19.4666H27.2V18.3999Z" fill="black"/>
<path d="M27.2 20H26.1333V21.0667H27.2V20Z" fill="black"/>
<path d="M4.79982 7.7334H3.73315V8.80007H4.79982V7.7334Z" fill="black"/>
<path d="M4.79982 18.3999H3.73315V19.4666H4.79982V18.3999Z" fill="black"/>
</svg>
