<svg width="21" height="36" viewBox="0 0 21 36" fill="none" xmlns="http://www.w3.org/2000/svg">
<path d="M18.6401 33.4919H2.74726C2.26906 33.4913 1.81059 33.3025 1.47242 32.9669C1.13425 32.6313 0.943989 32.1762 0.943359 31.7015V2.49306C0.943989 2.01836 1.13425 1.56328 1.47242 1.22764C1.81059 0.891996 2.26906 0.703192 2.74726 0.702637H18.6401C19.1183 0.703192 19.5768 0.891996 19.915 1.22764C20.2531 1.56328 20.4434 2.01836 20.444 2.49306V31.7015C20.4434 32.1762 20.2531 32.6313 19.915 32.9669C19.5768 33.3025 19.1183 33.4913 18.6401 33.4919ZM3 1.87506C2.66203 1.87541 2.25 2.25006 2.25 2.25006V3.00006V31.5001C2.25042 31.8356 2.38599 31.6379 2.625 31.8751C2.86401 32.1123 2.66203 32.2497 3 32.2501H18C18.338 32.2497 18.511 32.1123 18.75 31.8751C18.989 31.6379 19.1246 31.0856 19.125 30.7501V3.75006C19.1246 3.41457 19.1661 2.62506 19.125 2.25006C18.886 2.01285 18.713 1.87541 18.375 1.87506C18.375 1.87506 3.33797 1.87471 3 1.87506Z" fill="black"/>
<path d="M16.5767 6.75H4.4233C4.2446 6.74958 4.07335 6.66865 3.94712 6.52497C3.82089 6.38129 3.75 6.1866 3.75 5.98362V3.76638C3.75 3.5634 3.82089 3.36871 3.94712 3.22503C4.07335 3.08135 4.2446 3.00042 4.4233 3H16.5767C16.7554 3.00042 16.9267 3.08135 17.0529 3.22503C17.1791 3.36871 17.25 3.5634 17.25 3.76638V5.98362C17.25 6.1866 17.1791 6.38129 17.0529 6.52497C16.9267 6.66865 16.7554 6.74958 16.5767 6.75ZM4.4233 3.53118C4.36801 3.5316 4.31511 3.55685 4.27614 3.6014C4.23718 3.64596 4.21531 3.70622 4.21531 3.76903C4.21531 3.83183 4.21531 5.98626 4.21531 5.98626C4.21561 6.04884 4.23762 6.10875 4.27655 6.15303C4.31548 6.1973 4.36821 6.22236 4.4233 6.22278H16.5767C16.6318 6.22236 16.6845 6.1973 16.7234 6.15303C16.7624 6.10875 16.7844 6.04884 16.7847 5.98626V3.76903C16.7847 3.70622 16.7628 3.64596 16.7239 3.6014C16.6849 3.55685 16.632 3.5316 16.5767 3.53118H4.4233Z" fill="black"/>
<path d="M16.5767 12.75H4.4233C4.2448 12.7496 4.07373 12.6688 3.94753 12.5254C3.82134 12.3819 3.75031 12.1875 3.75 11.9847V9.76666C3.75 9.5636 3.82089 9.36884 3.94712 9.22511C4.07335 9.08138 4.2446 9.00042 4.4233 9H16.5767C16.7554 9.00042 16.9267 9.08138 17.0529 9.22511C17.1791 9.36884 17.25 9.5636 17.25 9.76666V11.9847C17.2497 12.1875 17.1787 12.3819 17.0525 12.5254C16.9263 12.6688 16.7552 12.7496 16.5767 12.75ZM4.4233 9.53084C4.36801 9.53126 4.31511 9.55651 4.27614 9.60109C4.23718 9.64566 4.21531 9.70594 4.21531 9.76877V11.9868C4.21561 12.0494 4.23762 12.1093 4.27655 12.1536C4.31548 12.1979 4.36821 12.223 4.4233 12.2234H16.5767C16.6318 12.223 16.6845 12.1979 16.7234 12.1536C16.7624 12.1093 16.7844 12.0494 16.7847 11.9868V9.76877C16.7847 9.70594 16.7628 9.64566 16.7239 9.60109C16.6849 9.55651 16.632 9.53126 16.5767 9.53084H4.4233Z" fill="black"/>
<path d="M10.6936 22.4526C10.2 22.4525 9.71884 22.2993 9.3173 22.0144C8.91575 21.7295 8.61391 21.3272 8.45397 20.8637C8.29402 20.4002 8.28396 19.8986 8.4252 19.4292C8.56645 18.9597 8.85192 18.5458 9.24173 18.2453C9.26928 18.2242 9.30074 18.2087 9.33433 18.1996C9.36792 18.1906 9.40298 18.1882 9.4375 18.1926C9.47202 18.197 9.50533 18.2081 9.53552 18.2253C9.56572 18.2424 9.59221 18.2654 9.61349 18.2927C9.63476 18.32 9.65041 18.3513 9.65952 18.3846C9.66863 18.418 9.67104 18.4528 9.66661 18.487C9.66218 18.5213 9.65099 18.5544 9.63368 18.5843C9.61638 18.6143 9.59329 18.6406 9.56575 18.6617C9.2631 18.8951 9.04147 19.2165 8.93185 19.581C8.82223 19.9456 8.8301 20.335 8.95435 20.6948C9.07861 21.0547 9.31304 21.367 9.62488 21.5882C9.93671 21.8093 10.3104 21.9282 10.6936 21.9282C11.0768 21.9282 11.4505 21.8093 11.7623 21.5882C12.0741 21.367 12.3086 21.0547 12.4328 20.6948C12.5571 20.335 12.5649 19.9456 12.4553 19.581C12.3457 19.2165 12.1241 18.8951 11.8214 18.6617C11.794 18.6406 11.771 18.6143 11.7537 18.5844C11.7365 18.5544 11.7254 18.5214 11.721 18.4872C11.7166 18.453 11.7191 18.4183 11.7283 18.385C11.7374 18.3518 11.7531 18.3206 11.7743 18.2934C11.7956 18.2661 11.8221 18.2433 11.8523 18.2262C11.8824 18.2091 11.9157 18.198 11.9501 18.1937C11.9846 18.1894 12.0196 18.1918 12.0531 18.2009C12.0866 18.21 12.118 18.2255 12.1454 18.2466C12.5347 18.5473 12.8197 18.9611 12.9606 19.4303C13.1015 19.8995 13.0913 20.4007 12.9314 20.8639C12.7715 21.3271 12.47 21.7291 12.0688 22.014C11.6676 22.2988 11.1868 22.4521 10.6936 22.4526Z" fill="black"/>
<path d="M10.6937 19.88C10.6236 19.88 10.5563 19.8523 10.5067 19.8031C10.4571 19.7538 10.4292 19.6871 10.4292 19.6174V17.309C10.4292 17.2393 10.4571 17.1725 10.5067 17.1233C10.5563 17.074 10.6236 17.0464 10.6937 17.0464C10.7639 17.0464 10.8311 17.074 10.8807 17.1233C10.9303 17.1725 10.9582 17.2393 10.9582 17.309V19.6174C10.9582 19.6871 10.9303 19.7538 10.8807 19.8031C10.8311 19.8523 10.7639 19.88 10.6937 19.88Z" fill="black"/>
<path d="M17.268 27.949H14.0223C13.9522 27.949 13.8849 27.9213 13.8353 27.872C13.7857 27.8228 13.7578 27.756 13.7578 27.6864C13.7578 27.6168 13.7857 27.55 13.8353 27.5007C13.8849 27.4515 13.9522 27.4238 14.0223 27.4238H17.268C17.3382 27.4238 17.4054 27.4515 17.455 27.5007C17.5047 27.55 17.5325 27.6168 17.5325 27.6864C17.5325 27.756 17.5047 27.8228 17.455 27.872C17.4054 27.9213 17.3382 27.949 17.268 27.949Z" fill="black"/>
<path d="M17.268 30.6018H14.0223C13.9522 30.6018 13.8849 30.5741 13.8353 30.5249C13.7857 30.4756 13.7578 30.4089 13.7578 30.3392C13.7578 30.2696 13.7857 30.2028 13.8353 30.1536C13.8849 30.1043 13.9522 30.0767 14.0223 30.0767H17.268C17.3382 30.0767 17.4054 30.1043 17.455 30.1536C17.5047 30.2028 17.5325 30.2696 17.5325 30.3392C17.5325 30.4089 17.5047 30.4756 17.455 30.5249C17.4054 30.5741 17.3382 30.6018 17.268 30.6018Z" fill="black"/>
<path d="M17.7526 34.8355H15.8363C15.7661 34.8355 15.6989 34.8079 15.6492 34.7586C15.5996 34.7094 15.5718 34.6426 15.5718 34.573V33.2284C15.5718 33.1587 15.5996 33.092 15.6492 33.0427C15.6989 32.9935 15.7661 32.9658 15.8363 32.9658H17.7526C17.8227 32.9658 17.89 32.9935 17.9396 33.0427C17.9892 33.092 18.0171 33.1587 18.0171 33.2284V34.573C18.0171 34.6426 17.9892 34.7094 17.9396 34.7586C17.89 34.8079 17.8227 34.8355 17.7526 34.8355ZM16.1008 34.3104H17.4881V33.4909H16.1008V34.3104Z" fill="black"/>
<path d="M5.5512 34.8355H3.63462C3.56447 34.8355 3.49719 34.8079 3.44759 34.7586C3.39798 34.7094 3.37012 34.6426 3.37012 34.573V33.2284C3.37012 33.1587 3.39798 33.092 3.44759 33.0427C3.49719 32.9935 3.56447 32.9658 3.63462 32.9658H5.5512C5.62135 32.9658 5.68863 32.9935 5.73823 33.0427C5.78783 33.092 5.8157 33.1587 5.8157 33.2284V34.573C5.8157 34.6426 5.78783 34.7094 5.73823 34.7586C5.68863 34.8079 5.62135 34.8355 5.5512 34.8355ZM3.89912 34.3104H5.2867V33.4909H3.89912V34.3104Z" fill="black"/>
</svg>
