<svg width="40" height="32" viewBox="0 0 40 32" fill="none" xmlns="http://www.w3.org/2000/svg">
<path d="M35.5312 16.7812C35.2724 16.7812 35.0625 16.9911 35.0625 17.25V30.2238C35.0625 30.6862 34.6862 31.0625 34.2238 31.0625H5.77619C5.31375 31.0625 4.9375 30.6862 4.9375 30.2238V17.25C4.9375 16.9911 4.72762 16.7812 4.46875 16.7812C4.20987 16.7812 4 16.9911 4 17.25V30.2238C4 31.2032 4.79681 32 5.77619 32H34.2237C35.2031 32 35.9999 31.2032 35.9999 30.2238V17.25C36 16.9911 35.7901 16.7812 35.5312 16.7812Z" fill="black"/>
<path d="M34.2238 0H5.77619C4.79681 0 4 0.796813 4 1.77619V14.75C4 15.0089 4.20987 15.2188 4.46875 15.2188C4.72763 15.2188 4.9375 15.0089 4.9375 14.75V1.77619C4.9375 1.31375 5.31375 0.9375 5.77619 0.9375H34.2237C34.6862 0.9375 35.0625 1.31375 35.0625 1.77619V14.75C35.0625 15.0089 35.2724 15.2188 35.5312 15.2188C35.7901 15.2188 36 15.0089 36 14.75V1.77619C36 0.796813 35.2032 0 34.2238 0Z" fill="black"/>
<path d="M29.646 6.35402C27.0695 3.7774 23.6437 2.3584 19.9999 2.3584C16.3561 2.3584 12.9303 3.7774 10.3538 6.35396C7.77715 8.93059 6.35815 12.3563 6.35815 16.0001C6.35815 19.644 7.77715 23.0697 10.3537 25.6463C12.9303 28.2229 16.356 29.6418 19.9998 29.6418C23.6437 29.6418 27.0694 28.2228 29.646 25.6463C32.2226 23.0697 33.6415 19.644 33.6415 16.0001C33.6415 12.3563 32.2225 8.93059 29.646 6.35402ZM19.9999 28.7044C12.9948 28.7044 7.29565 23.0053 7.29565 16.0001C7.29565 8.99502 12.9948 3.2959 19.9999 3.2959C27.005 3.2959 32.7042 8.99502 32.7042 16.0001C32.7042 23.0053 27.005 28.7044 19.9999 28.7044Z" fill="black"/>
<path d="M32.3259 26.3799C31.3427 26.3799 30.5427 27.1798 30.5427 28.1631C30.5427 29.1463 31.3427 29.9463 32.3259 29.9463C33.3092 29.9463 34.1091 29.1463 34.1091 28.1631C34.1091 27.1798 33.3092 26.3799 32.3259 26.3799ZM32.3259 29.0088C31.8596 29.0088 31.4802 28.6294 31.4802 28.1631C31.4802 27.6968 31.8596 27.3174 32.3259 27.3174C32.7922 27.3174 33.1716 27.6968 33.1716 28.1631C33.1716 28.6294 32.7922 29.0088 32.3259 29.0088Z" fill="black"/>
<path d="M7.67406 26.3799C6.69081 26.3799 5.89087 27.1798 5.89087 28.1631C5.89087 29.1463 6.69081 29.9463 7.67406 29.9463C8.65731 29.9463 9.45724 29.1463 9.45724 28.1631C9.45724 27.1798 8.65731 26.3799 7.67406 26.3799ZM7.67406 29.0088C7.20774 29.0088 6.82837 28.6294 6.82837 28.1631C6.82837 27.6968 7.20774 27.3174 7.67406 27.3174C8.14037 27.3174 8.51974 27.6968 8.51974 28.1631C8.51974 28.6294 8.14037 29.0088 7.67406 29.0088Z" fill="black"/>
<path d="M7.67406 1.65625C6.69081 1.65625 5.89087 2.45619 5.89087 3.43944C5.89087 4.42269 6.69081 5.22263 7.67406 5.22263C8.65731 5.22263 9.45724 4.42269 9.45724 3.43944C9.45724 2.45619 8.65731 1.65625 7.67406 1.65625ZM7.67406 4.28513C7.20774 4.28513 6.82837 3.90575 6.82837 3.43944C6.82837 2.97313 7.20774 2.59375 7.67406 2.59375C8.14037 2.59375 8.51974 2.97313 8.51974 3.43944C8.51974 3.90575 8.14037 4.28513 7.67406 4.28513Z" fill="black"/>
<path d="M32.3259 1.65625C31.3427 1.65625 30.5427 2.45619 30.5427 3.43944C30.5427 4.42269 31.3427 5.22263 32.3259 5.22263C33.3092 5.22263 34.1091 4.42269 34.1091 3.43944C34.1091 2.45619 33.3092 1.65625 32.3259 1.65625ZM32.3259 4.28513C31.8596 4.28513 31.4802 3.90575 31.4802 3.43944C31.4802 2.97313 31.8596 2.59375 32.3259 2.59375C32.7922 2.59375 33.1716 2.97313 33.1716 3.43944C33.1716 3.90575 32.7922 4.28513 32.3259 4.28513Z" fill="black"/>
<path d="M31.7115 15.3506C31.6725 14.6426 31.1312 14.051 30.4245 13.9439C29.5304 13.8083 28.4883 13.7395 27.3274 13.7395C26.4195 13.7395 25.5757 13.7815 24.9114 13.829C25.9976 13.1222 27.3962 12.599 29.0813 12.2721C29.5688 12.1775 29.965 11.8629 30.1683 11.409C30.3702 10.9585 30.34 10.4362 30.0875 10.0117V10.0118C29.4767 8.9844 28.7144 8.0584 27.822 7.25934C27.5471 7.01309 27.1914 6.87747 26.8205 6.87747C26.4937 6.87747 26.1813 6.98022 25.9174 7.17459C24.3631 8.31959 22.8708 9.91465 21.9377 10.9918C22.206 9.7239 22.8251 8.36503 23.7854 6.94228C24.0632 6.53072 24.1208 6.02809 23.9437 5.56334C23.7679 5.10209 23.3773 4.75409 22.8987 4.63247C21.7445 4.33922 20.5421 4.22272 19.3504 4.28822C18.6425 4.32728 18.0509 4.86859 17.9438 5.57516C17.6543 7.48365 17.727 9.66697 17.8288 11.0883C17.122 10.0021 16.5989 8.60353 16.272 6.91847C16.1348 6.21141 15.5102 5.69822 14.7868 5.69822C14.515 5.69822 14.247 5.77222 14.0116 5.91222C12.9843 6.52334 12.0583 7.28553 11.2593 8.17778C10.7863 8.70597 10.7507 9.50697 11.1746 10.0825C12.3197 11.6368 13.9147 13.1291 14.9918 14.0622C13.724 13.7938 12.3651 13.1748 10.9423 12.2145C10.6923 12.0457 10.402 11.9565 10.1027 11.9565C9.40828 11.9565 8.80372 12.4273 8.63247 13.1012C8.33816 14.2596 8.22228 15.4533 8.28822 16.6494C8.32728 17.3573 8.86859 17.9489 9.57516 18.056C10.4693 18.1917 11.5113 18.2605 12.6723 18.2605C13.5799 18.2605 14.4238 18.2185 15.0883 18.171C14.0021 18.8778 12.6035 19.401 10.9184 19.7279C10.431 19.8225 10.0348 20.1371 9.83134 20.591C9.62947 21.0415 9.65966 21.5638 9.91209 21.9883C10.5232 23.0156 11.2855 23.9415 12.1777 24.7406C12.4527 24.9868 12.8083 25.1224 13.1792 25.1224C13.5061 25.1224 13.8184 25.0197 14.0823 24.8253C15.6367 23.6802 17.129 22.0852 18.062 21.0082C17.7937 22.276 17.1747 23.6348 16.2143 25.0576C15.9365 25.4692 15.8788 25.9718 16.056 26.4366C16.2318 26.8978 16.6225 27.2458 17.1011 27.3675C18.0467 27.6077 19.022 27.7295 20.0001 27.7295C20.2156 27.7295 20.434 27.7235 20.6493 27.7117C21.3572 27.6726 21.9488 27.1313 22.0559 26.4247C22.3453 24.5162 22.2727 22.3328 22.1708 20.9116C22.8776 21.9978 23.4008 23.3963 23.7278 25.0814C23.8649 25.7885 24.4895 26.3017 25.213 26.3018C25.4847 26.3018 25.7527 26.2278 25.9881 26.0878C27.0153 25.4767 27.9413 24.7145 28.7403 23.8222C29.2134 23.294 29.249 22.493 28.825 21.9175C27.6799 20.363 26.0849 18.8708 25.0079 17.9378C26.2757 18.2062 27.6346 18.8252 29.0574 19.7855C29.3074 19.9543 29.5978 20.0434 29.8971 20.0434C30.5914 20.0434 31.196 19.5727 31.3672 18.8987C31.6615 17.7403 31.7774 16.5465 31.7115 15.3506ZM26.4733 7.9294C26.575 7.85453 26.6951 7.8149 26.8205 7.8149C26.9603 7.8149 27.0938 7.86559 27.1967 7.95765C28.018 8.69322 28.7196 9.54547 29.2818 10.4909C29.3785 10.6533 29.39 10.8532 29.3128 11.0255C29.2348 11.1997 29.0892 11.3155 28.9027 11.3517C27.0215 11.7167 25.4585 12.3187 24.2473 13.1437C23.8295 12.5243 23.2798 12.0011 22.6389 11.614C23.5414 10.5713 24.9847 9.02609 26.4733 7.9294ZM18.8707 5.71572C18.9116 5.44572 19.1351 5.23903 19.402 5.22428C19.6002 5.21334 19.8013 5.20784 19.9998 5.20784C20.8998 5.20784 21.7975 5.31997 22.6678 5.54109C22.851 5.58766 23.0005 5.72078 23.0677 5.89716C23.1356 6.07553 23.1145 6.2604 23.0083 6.41784C21.9367 8.0054 21.2573 9.53572 20.984 10.975C20.9573 10.9698 20.9304 10.966 20.9037 10.9613C20.854 10.9524 20.8045 10.9432 20.7543 10.9358C20.7174 10.9303 20.6803 10.9263 20.6433 10.9217C20.5976 10.9159 20.5521 10.9095 20.506 10.905C20.459 10.9003 20.4117 10.8976 20.3644 10.8942C20.3278 10.8917 20.2915 10.8881 20.2547 10.8863C20.1699 10.8821 20.085 10.8798 19.9998 10.8798C19.921 10.8798 19.8424 10.8822 19.764 10.8858C19.7489 10.8865 19.7338 10.8871 19.7188 10.8879C19.6453 10.8919 19.5721 10.8975 19.499 10.9047C19.4806 10.9065 19.4623 10.9086 19.4438 10.9106C19.3784 10.9177 19.3132 10.9259 19.2482 10.9355C19.2278 10.9385 19.2077 10.9418 19.1875 10.945C19.1309 10.9542 19.0745 10.9643 19.0183 10.9753C18.9897 10.9809 18.9612 10.9865 18.9327 10.9926C18.8765 11.0047 18.8203 11.0174 18.7645 11.0313C18.6655 9.65572 18.5935 7.54316 18.8707 5.71572ZM12.6721 17.3228C11.5582 17.3228 10.5635 17.2577 9.71559 17.129C9.44559 17.0881 9.23897 16.8646 9.22422 16.5977C9.16353 15.4967 9.27009 14.398 9.54097 13.332C9.60647 13.0741 9.83741 12.8939 10.1025 12.8939C10.2143 12.8939 10.3232 12.9276 10.4177 12.9914C12.0053 14.063 13.5356 14.7425 14.9748 15.0158C14.9697 15.0424 14.9659 15.0693 14.9612 15.0961C14.9523 15.1458 14.9431 15.1953 14.9357 15.2455C14.9302 15.2823 14.9262 15.3195 14.9215 15.3565C14.9158 15.4022 14.9094 15.4477 14.9049 15.4937C14.9002 15.5408 14.8975 15.5881 14.8941 15.6353C14.8915 15.6719 14.888 15.7082 14.8862 15.745C14.882 15.8298 14.8797 15.9148 14.8797 15.9999C14.8797 16.0788 14.8821 16.1573 14.8857 16.2358C14.8864 16.2508 14.887 16.2659 14.8878 16.281C14.8918 16.3544 14.8974 16.4277 14.9045 16.5007C14.9063 16.5192 14.9085 16.5376 14.9105 16.5561C14.9176 16.6213 14.9257 16.6863 14.9353 16.7511C14.9384 16.7718 14.9417 16.7925 14.945 16.8131C14.9541 16.8692 14.9642 16.9251 14.9751 16.9809C14.9807 17.0098 14.9864 17.0387 14.9925 17.0675C15.0045 17.1236 15.0173 17.1795 15.0312 17.2352C14.383 17.2817 13.5584 17.3228 12.6721 17.3228ZM11.9293 9.52634C11.7674 9.3064 11.7793 9.00228 11.9577 8.80309C12.6932 7.98184 13.5454 7.28028 14.4908 6.71791C14.5813 6.66409 14.6836 6.63565 14.7867 6.63565C15.0622 6.63565 15.2997 6.82965 15.3516 7.09703C15.7166 8.97822 16.3186 10.5412 17.1437 11.7524C16.5243 12.1703 16.001 12.72 15.6139 13.3608C14.5713 12.4584 13.026 11.015 11.9293 9.52634ZM13.5263 24.0703C13.4247 24.1452 13.3046 24.1848 13.1791 24.1848C13.0394 24.1848 12.9058 24.1341 12.803 24.0421C11.9817 23.3066 11.2802 22.4543 10.7177 21.5089C10.6211 21.3465 10.6095 21.1466 10.6867 20.9743C10.7648 20.8001 10.9104 20.6843 11.0968 20.6481C12.978 20.2831 14.541 19.6811 15.7522 18.856C16.1701 19.4754 16.7198 19.9987 17.3607 20.3858C16.4583 21.4285 15.015 22.9737 13.5263 24.0703ZM21.129 26.2841C21.0881 26.5541 20.8646 26.7607 20.5977 26.7755C19.5014 26.8359 18.3942 26.7286 17.332 26.4587C17.1487 26.4122 16.9992 26.279 16.932 26.1027C16.8641 25.9243 16.8852 25.7394 16.9914 25.582C18.063 23.9943 18.7425 22.4641 19.0157 21.0248C19.0418 21.03 19.0681 21.0335 19.0942 21.0383C19.1445 21.0473 19.1946 21.0565 19.2453 21.0641C19.2826 21.0697 19.3201 21.0737 19.3576 21.0784C19.4028 21.0841 19.4478 21.0904 19.4934 21.0949C19.5413 21.0997 19.5894 21.1025 19.6375 21.1059C19.6733 21.1084 19.7088 21.1119 19.7449 21.1137C19.8297 21.1179 19.9147 21.1202 19.9999 21.1202C20.0788 21.1202 20.1574 21.1178 20.2358 21.1142C20.2508 21.1135 20.2659 21.113 20.2809 21.1122C20.3545 21.1082 20.4278 21.1025 20.5008 21.0954C20.5192 21.0936 20.5375 21.0915 20.5558 21.0895C20.6213 21.0824 20.6867 21.0742 20.7519 21.0645C20.772 21.0616 20.7919 21.0583 20.8119 21.0552C20.8687 21.046 20.9252 21.0358 20.9816 21.0248C21.0101 21.0192 21.0386 21.0137 21.0669 21.0076C21.1232 20.9955 21.1793 20.9828 21.2352 20.9688C21.3342 22.3441 21.4061 24.4567 21.129 26.2841ZM22.2531 19.521C22.2057 19.5515 22.1577 19.581 22.109 19.6097C22.107 19.6108 22.1049 19.612 22.1028 19.6132C22.0543 19.6416 22.0052 19.6692 21.9555 19.6956C21.9548 19.696 21.9541 19.6965 21.9534 19.6968C21.8039 19.7762 21.649 19.8465 21.4895 19.9075C21.489 19.9077 21.4885 19.9078 21.488 19.908C21.4309 19.9298 21.3735 19.9502 21.3157 19.9693C21.3118 19.9707 21.3079 19.972 21.304 19.9733C21.2518 19.9906 21.1993 20.0064 21.1466 20.0215C21.1345 20.025 21.1225 20.0285 21.1103 20.0318C21.0639 20.0447 21.0172 20.0565 20.9704 20.0678C20.9507 20.0725 20.9309 20.0771 20.911 20.0815C20.8698 20.0908 20.8286 20.0994 20.7872 20.1073C20.7605 20.1125 20.7337 20.1172 20.7068 20.1217C20.6705 20.128 20.6342 20.134 20.5977 20.1393C20.5643 20.1441 20.5307 20.1481 20.4971 20.1521C20.4656 20.1558 20.4341 20.1598 20.4025 20.1629C20.3612 20.1669 20.3194 20.1697 20.2777 20.1724C20.2528 20.174 20.2279 20.1763 20.203 20.1775C20.1357 20.1808 20.068 20.1827 19.9998 20.1827C19.9357 20.1827 19.8719 20.1807 19.8083 20.1778C19.7889 20.1769 19.7695 20.1757 19.75 20.1745C19.7037 20.1718 19.6575 20.1682 19.6116 20.164C19.5922 20.1622 19.5728 20.1606 19.5534 20.1585C19.493 20.1521 19.433 20.1446 19.3734 20.1356C19.3562 20.133 19.339 20.1297 19.3218 20.1268C19.278 20.1197 19.2345 20.112 19.1912 20.1035C19.1661 20.0985 19.1412 20.0933 19.1162 20.0878C19.0797 20.08 19.0434 20.0715 19.0072 20.0627C18.9825 20.0566 18.9578 20.0508 18.9332 20.0443C18.712 19.986 18.4982 19.9093 18.2928 19.817C18.292 19.8166 18.2911 19.8161 18.2902 19.8157C17.5513 19.4832 16.9195 18.9365 16.4813 18.2572C16.4803 18.2557 16.4793 18.254 16.4782 18.2525C16.448 18.2054 16.4187 18.1578 16.3903 18.1095C16.3888 18.107 16.3875 18.1045 16.386 18.102C16.3578 18.0538 16.3304 18.005 16.3041 17.9556C16.3037 17.9549 16.3033 17.9543 16.303 17.9537C16.2237 17.8042 16.1533 17.6493 16.0923 17.4898C16.0921 17.4892 16.092 17.4886 16.0917 17.488C16.0698 17.4308 16.0494 17.3732 16.0301 17.3152C16.0289 17.3116 16.0276 17.308 16.0264 17.3044C16.0091 17.252 15.9932 17.1992 15.978 17.1463C15.9747 17.1344 15.9712 17.1227 15.9679 17.1107C15.955 17.0641 15.9431 17.0172 15.9318 16.9702C15.9272 16.9507 15.9226 16.931 15.9182 16.9114C15.909 16.8701 15.9003 16.8287 15.8923 16.7871C15.8873 16.7605 15.8826 16.7339 15.878 16.7072C15.8718 16.6707 15.8657 16.6342 15.8604 16.5976C15.8557 16.5643 15.8516 16.5308 15.8477 16.4973C15.8439 16.4658 15.8399 16.4342 15.8368 16.4025C15.8329 16.3612 15.8301 16.3195 15.8273 16.2778C15.8257 16.2528 15.8234 16.228 15.8222 16.203C15.819 16.1357 15.8171 16.068 15.8171 15.9999C15.8171 15.9357 15.8191 15.872 15.822 15.8085C15.8228 15.789 15.8241 15.7695 15.8252 15.75C15.828 15.7038 15.8315 15.6577 15.8358 15.6118C15.8376 15.5923 15.8392 15.5728 15.8412 15.5534C15.8477 15.4931 15.8552 15.4332 15.8642 15.3736C15.8668 15.3561 15.8702 15.3387 15.873 15.3213C15.8802 15.2778 15.8878 15.2345 15.8963 15.1914C15.9012 15.1662 15.9065 15.1412 15.912 15.116C15.9198 15.0797 15.9283 15.0435 15.9371 15.0075C15.9432 14.9827 15.949 14.9578 15.9555 14.9331C16.0139 14.7119 16.0906 14.4982 16.1828 14.2929C16.1832 14.292 16.1837 14.2912 16.1842 14.2903C16.5167 13.5513 17.0633 12.9195 17.7426 12.4813C17.7442 12.4803 17.7458 12.4793 17.7473 12.4783C17.7944 12.448 17.842 12.4187 17.8903 12.3903C17.8928 12.3889 17.8953 12.3875 17.8978 12.386C17.946 12.3578 17.9948 12.3305 18.0442 12.3042C18.0449 12.3038 18.0455 12.3033 18.0462 12.303C18.1955 12.2238 18.3503 12.1535 18.5097 12.0925C18.5103 12.0923 18.511 12.0921 18.5118 12.0918C18.569 12.07 18.6267 12.0495 18.6846 12.0302C18.6882 12.029 18.6918 12.0277 18.6954 12.0265C18.7478 12.0092 18.8006 11.9933 18.8535 11.9782C18.8654 11.9748 18.8772 11.9713 18.8891 11.968C18.9357 11.9551 18.9826 11.9432 19.0296 11.932C19.0492 11.9273 19.0688 11.9227 19.0884 11.9183C19.1297 11.9091 19.1712 11.9005 19.2127 11.8925C19.2393 11.8874 19.2659 11.8827 19.2927 11.8782C19.3291 11.8719 19.3656 11.8658 19.4022 11.8605C19.4355 11.8558 19.469 11.8517 19.5025 11.8478C19.534 11.844 19.5656 11.84 19.5973 11.837C19.6386 11.833 19.6803 11.8302 19.722 11.8275C19.747 11.8258 19.7718 11.8235 19.7968 11.8223C19.8642 11.8191 19.9318 11.8172 19.9999 11.8172C20.0641 11.8172 20.1278 11.8192 20.1913 11.8221C20.2108 11.823 20.2303 11.8242 20.2498 11.8253C20.296 11.8281 20.3421 11.8317 20.388 11.8359C20.4075 11.8377 20.427 11.8393 20.4464 11.8413C20.5067 11.8478 20.5667 11.8553 20.6262 11.8643C20.6437 11.8669 20.6611 11.8703 20.6785 11.8732C20.722 11.8803 20.7653 11.888 20.8084 11.8964C20.8336 11.9013 20.8587 11.9067 20.8838 11.9121C20.9202 11.92 20.9563 11.9284 20.9923 11.9372C21.0172 11.9433 21.042 11.9491 21.0667 11.9557C21.2879 12.014 21.5016 12.0907 21.7069 12.1829C21.7078 12.1833 21.7087 12.1838 21.7095 12.1843C22.4485 12.5168 23.0803 13.0634 23.5185 13.7427C23.5195 13.7443 23.5205 13.7459 23.5215 13.7475C23.5518 13.7945 23.5811 13.8422 23.6095 13.8905C23.6109 13.893 23.6123 13.8955 23.6138 13.8979C23.642 13.9462 23.6693 13.9949 23.6957 14.0443C23.696 14.045 23.6965 14.0456 23.6968 14.0463C23.7761 14.1958 23.8464 14.3507 23.9075 14.5102C23.9077 14.5107 23.9078 14.5113 23.908 14.5119C23.9299 14.5691 23.9503 14.6267 23.9696 14.6845C23.9708 14.6883 23.9722 14.692 23.9733 14.6957C23.9906 14.748 24.0065 14.8007 24.0217 14.8535C24.0251 14.8654 24.0286 14.8773 24.0318 14.8893C24.0447 14.9359 24.0566 14.9827 24.0678 15.0296C24.0725 15.0492 24.0771 15.0689 24.0815 15.0887C24.0908 15.1299 24.0994 15.1713 24.1074 15.2128C24.1125 15.2393 24.1172 15.2661 24.1217 15.2928C24.128 15.3292 24.134 15.3657 24.1393 15.4023C24.1442 15.4356 24.1482 15.4691 24.1522 15.5027C24.1559 15.5342 24.1599 15.5657 24.163 15.5974C24.167 15.6388 24.1697 15.6805 24.1725 15.7222C24.1741 15.7471 24.1763 15.772 24.1776 15.797C24.1808 15.8643 24.1827 15.932 24.1827 16.0002C24.1827 16.0643 24.1807 16.1281 24.1778 16.1916C24.177 16.2111 24.1757 16.2305 24.1746 16.25C24.1718 16.2963 24.1683 16.3423 24.164 16.3882C24.1622 16.4077 24.1607 16.4272 24.1586 16.4467C24.1522 16.507 24.1447 16.5669 24.1357 16.6265C24.133 16.644 24.1297 16.6613 24.1268 16.6788C24.1197 16.7223 24.112 16.7656 24.1035 16.8087C24.0986 16.8338 24.0933 16.8589 24.0878 16.884C24.08 16.9204 24.0715 16.9565 24.0627 16.9926C24.0567 17.0174 24.0508 17.0423 24.0443 17.067C23.9859 17.2882 23.9092 17.5018 23.817 17.7072C23.8166 17.708 23.8161 17.7089 23.8157 17.7098C23.483 18.4488 22.9363 19.0809 22.2567 19.5191C22.2554 19.5195 22.2542 19.5203 22.2531 19.521ZM28.0703 22.4735C28.2323 22.6933 28.2203 22.9975 28.042 23.1967C27.3065 24.018 26.4542 24.7196 25.5089 25.2819C25.4184 25.3357 25.316 25.3642 25.2129 25.3642C24.9375 25.3642 24.6999 25.1702 24.6481 24.9028C24.283 23.0216 23.681 21.4586 22.856 20.2474C23.4754 19.8295 23.9987 19.2798 24.3857 18.639C25.4284 19.5413 26.9736 20.9847 28.0703 22.4735ZM30.4587 18.6677C30.3932 18.9257 30.1622 19.1058 29.8972 19.1058C29.7855 19.1058 29.6765 19.072 29.582 19.0083C27.9943 17.9367 26.4641 17.2572 25.0249 16.9839C25.0302 16.957 25.0339 16.9299 25.0387 16.903C25.0475 16.8536 25.0567 16.8044 25.064 16.7545C25.0697 16.7168 25.0737 16.6788 25.0785 16.641C25.0842 16.5961 25.0904 16.5514 25.0949 16.5062C25.0997 16.4583 25.1025 16.4103 25.1059 16.3623C25.1084 16.3263 25.1119 16.2907 25.1137 16.2547C25.1179 16.1698 25.1202 16.0848 25.1202 15.9997C25.1202 15.9208 25.1178 15.8422 25.1142 15.7638C25.1135 15.7487 25.113 15.7337 25.1122 15.7186C25.1082 15.6452 25.1025 15.5719 25.0954 15.4989C25.0936 15.4804 25.0915 15.462 25.0895 15.4435C25.0823 15.3783 25.0742 15.3133 25.0646 15.2485C25.0615 15.2277 25.0582 15.2071 25.0549 15.1865C25.0458 15.1303 25.0358 15.0744 25.0248 15.0187C25.0192 14.9897 25.0135 14.9608 25.0074 14.9321C24.9954 14.876 24.9827 14.8201 24.9688 14.7644C25.6165 14.7182 26.441 14.677 27.3275 14.677C28.4415 14.677 29.4363 14.7422 30.2841 14.8707C30.5541 14.9117 30.7607 15.1352 30.7755 15.4021C30.8362 16.5029 30.7296 17.6016 30.4587 18.6677Z" fill="black"/>
</svg>
