<svg width="34" height="34" viewBox="0 0 34 34" fill="none" xmlns="http://www.w3.org/2000/svg">
<path d="M18.2763 27.5678H15.7236C15.614 27.5678 15.5081 27.5286 15.4249 27.4575C15.3417 27.3863 15.2866 27.2877 15.2696 27.1795L14.7922 24.1471C14.3475 24.0108 13.9167 23.8325 13.5058 23.6146L11.0247 25.4258C10.9361 25.4908 10.8271 25.5219 10.7175 25.5135C10.6079 25.5051 10.505 25.4576 10.4274 25.3798L8.6217 23.5705C8.54386 23.4929 8.49642 23.3899 8.48799 23.2803C8.47956 23.1707 8.5107 23.0618 8.57575 22.9732L10.3869 20.4921C10.1691 20.0811 9.99099 19.6503 9.85489 19.2056L6.82245 18.7282C6.71431 18.7117 6.61561 18.6571 6.5441 18.5743C6.4726 18.4915 6.43298 18.386 6.43237 18.2766V15.7243C6.43235 15.6148 6.47139 15.5089 6.54249 15.4257C6.61358 15.3425 6.71204 15.2874 6.82016 15.2703L9.85259 14.7925C9.98869 14.3477 10.1668 13.917 10.3846 13.506L8.57345 11.0249C8.5084 10.9363 8.47727 10.8273 8.4857 10.7178C8.49413 10.6082 8.54156 10.5052 8.6194 10.4276L10.4255 8.62194C10.5031 8.54411 10.6061 8.49667 10.7157 8.48824C10.8253 8.47981 10.9342 8.51095 11.0228 8.576L13.5039 10.3872C13.9149 10.1693 14.3456 9.99094 14.7904 9.85467L15.2678 6.82224C15.2845 6.71348 15.3397 6.61433 15.4234 6.54283C15.507 6.47133 15.6135 6.43222 15.7236 6.43262H18.2763C18.3858 6.43261 18.4918 6.47172 18.575 6.54291C18.6582 6.61409 18.7133 6.71267 18.7303 6.82086L19.2076 9.8533C19.6524 9.98956 20.0832 10.1679 20.4941 10.3858L22.9752 8.57462C23.0638 8.50957 23.1728 8.47843 23.2824 8.48686C23.392 8.49529 23.4949 8.54273 23.5725 8.62057L25.3786 10.4262C25.4565 10.5038 25.5039 10.6068 25.5123 10.7164C25.5208 10.826 25.4896 10.9349 25.4246 11.0235L23.6134 13.5046C23.8312 13.9156 24.0093 14.3464 24.1455 14.7911L27.1779 15.2689C27.286 15.286 27.3845 15.3411 27.4556 15.4243C27.5266 15.5076 27.5657 15.6134 27.5657 15.7229V18.2756C27.5657 18.3852 27.5266 18.4911 27.4554 18.5743C27.3842 18.6575 27.2856 18.7126 27.1774 18.7296L24.145 19.207C24.0089 19.6517 23.8307 20.0825 23.6129 20.4935L25.4241 22.9745C25.4892 23.0631 25.5203 23.1721 25.5119 23.2817C25.5035 23.3913 25.456 23.4942 25.3782 23.5718L23.5702 25.378C23.4926 25.4558 23.3897 25.5032 23.2801 25.5117C23.1705 25.5201 23.0615 25.489 22.9729 25.4239L20.4918 23.6127C20.0809 23.8307 19.6501 24.009 19.2053 24.1452L18.728 27.1777C18.7115 27.2858 18.6569 27.3845 18.5741 27.456C18.4913 27.5275 18.3857 27.5671 18.2763 27.5678ZM16.1169 26.6488H17.8839L18.3462 23.712C18.3601 23.6236 18.3995 23.5413 18.4596 23.475C18.5196 23.4087 18.5978 23.3614 18.6843 23.3389C19.2502 23.1914 19.7931 22.967 20.2979 22.6718C20.3752 22.6267 20.4639 22.6052 20.5532 22.6099C20.6425 22.6145 20.7284 22.6451 20.8006 22.6979L23.2026 24.4503L24.4524 23.201L22.6972 20.8004C22.6445 20.7282 22.614 20.6422 22.6094 20.5529C22.6049 20.4636 22.6264 20.3749 22.6715 20.2977C22.9669 19.7928 23.192 19.2499 23.3405 18.6841C23.363 18.5975 23.4104 18.5193 23.4768 18.4593C23.5431 18.3992 23.6256 18.3598 23.714 18.3459L26.6509 17.8865V16.1166L23.714 15.6544C23.6257 15.6405 23.5433 15.6011 23.477 15.541C23.4108 15.4809 23.3635 15.4028 23.3409 15.3163C23.1932 14.7506 22.9689 14.2077 22.6743 13.7026C22.6292 13.6254 22.6076 13.5368 22.6122 13.4475C22.6168 13.3582 22.6473 13.2722 22.7 13.2L24.4501 10.7975L23.2026 9.55005L20.8001 11.3029C20.728 11.3557 20.642 11.3863 20.5527 11.3909C20.4634 11.3956 20.3747 11.3741 20.2975 11.3291C19.7928 11.0331 19.2499 10.8078 18.6839 10.6596C18.5973 10.6371 18.5192 10.5898 18.4591 10.5236C18.399 10.4573 18.3596 10.3749 18.3457 10.2866L17.8835 7.35154H16.1164L15.6542 10.2884C15.6403 10.3768 15.6009 10.4593 15.5409 10.5257C15.4808 10.592 15.4026 10.6394 15.316 10.6619C14.7501 10.8094 14.2072 11.0339 13.7024 11.3291C13.6252 11.3741 13.5365 11.3956 13.4472 11.3909C13.3579 11.3863 13.2719 11.3557 13.1998 11.3029L10.7972 9.55005L9.54981 10.7975L11.3026 13.2C11.3554 13.2722 11.3859 13.3582 11.3905 13.4475C11.395 13.5368 11.3735 13.6254 11.3284 13.7026C11.0329 14.2075 10.8079 14.7504 10.6594 15.3163C10.6369 15.4028 10.5896 15.4809 10.5233 15.541C10.457 15.6011 10.3747 15.6405 10.2863 15.6544L7.35129 16.1166V17.8842L10.2882 18.3436C10.3766 18.3575 10.4591 18.3969 10.5254 18.457C10.5918 18.517 10.6391 18.5952 10.6617 18.6818C10.8094 19.2475 11.0337 19.7904 11.3284 20.2954C11.3735 20.3726 11.395 20.4613 11.3905 20.5506C11.3859 20.6399 11.3554 20.7259 11.3026 20.7981L9.54981 23.2029L10.7995 24.4522L13.1998 22.6975C13.2719 22.6447 13.3579 22.6141 13.4472 22.6094C13.5365 22.6048 13.6252 22.6263 13.7024 22.6713C14.2071 22.9673 14.75 23.1925 15.316 23.3407C15.4026 23.3633 15.4808 23.4106 15.5409 23.477C15.6009 23.5434 15.6403 23.6258 15.6542 23.7143L16.1169 26.6488Z" fill="black"/>
<path d="M17 21.1285C16.1835 21.1285 15.3852 20.8864 14.7063 20.4327C14.0273 19.979 13.4981 19.3342 13.1856 18.5798C12.8731 17.8254 12.7914 16.9952 12.9507 16.1943C13.11 15.3934 13.5032 14.6578 14.0806 14.0804C14.658 13.503 15.3937 13.1097 16.1946 12.9504C16.9955 12.7911 17.8256 12.8729 18.58 13.1854C19.3345 13.4979 19.9793 14.0271 20.4329 14.706C20.8866 15.385 21.1287 16.1832 21.1287 16.9998C21.127 18.0943 20.6915 19.1434 19.9176 19.9174C19.1437 20.6913 18.0945 21.1268 17 21.1285ZM17 13.7896C16.3652 13.7896 15.7447 13.9778 15.2168 14.3305C14.689 14.6831 14.2776 15.1844 14.0346 15.7709C13.7917 16.3574 13.7281 17.0027 13.8519 17.6254C13.9757 18.248 14.2814 18.8199 14.7302 19.2688C15.1791 19.7178 15.751 20.0235 16.3736 20.1474C16.9962 20.2713 17.6415 20.2078 18.2281 19.9649C18.8146 19.7221 19.3159 19.3107 19.6687 18.7829C20.0214 18.2552 20.2097 17.6346 20.2098 16.9998C20.2089 16.1488 19.8704 15.333 19.2686 14.7312C18.6669 14.1295 17.851 13.791 17 13.79V13.7896Z" fill="black"/>
<path d="M1.20432 20.0179C0.478459 16.2112 1.15167 12.2704 3.1001 8.92059C5.04853 5.57075 8.14111 3.03717 11.8089 1.786C15.4766 0.534824 19.4728 0.650213 23.0623 2.11094C26.6517 3.57166 29.593 6.27946 31.3449 9.73615L30.5252 10.1497C28.8731 6.891 26.0999 4.33847 22.7157 2.9616C19.3316 1.58473 15.5641 1.47612 12.1062 2.65576C8.64837 3.8354 5.73275 6.22395 3.89568 9.38203C2.05862 12.5401 1.42366 16.2553 2.10761 19.8443L1.20432 20.0179Z" fill="black"/>
<path d="M31.2433 10.5562L27.6301 9.16537L27.96 8.30756L30.6244 9.33307L31.3747 6.57861L32.2615 6.82029L31.2433 10.5562Z" fill="black"/>
<path d="M17.0261 33.0762C14.0503 33.0793 11.1319 32.2573 8.59511 30.7017C6.05834 29.146 4.00251 26.9175 2.65601 24.2638L3.47568 23.8503C5.12757 27.1092 7.90072 29.6621 11.285 31.0392C14.6692 32.4163 18.4369 32.5251 21.895 31.3454C25.353 30.1658 28.2688 27.7771 30.1059 24.6189C31.943 21.4606 32.5779 17.7452 31.8937 14.1561L32.7961 13.9829C33.2396 16.306 33.1651 18.6982 32.578 20.9892C31.9909 23.2802 30.9057 25.4134 29.3996 27.2368C27.8935 29.0603 26.0038 30.529 23.865 31.5384C21.7262 32.5477 19.3911 33.0728 17.0261 33.0762Z" fill="black"/>
<path d="M2.62531 27.4214L1.73901 27.1797L2.75672 23.4438L6.36991 24.8346L6.04001 25.6924L3.37561 24.6674L2.62531 27.4214Z" fill="black"/>
</svg>
