<svg width="31" height="31" viewBox="0 0 31 31" fill="none" xmlns="http://www.w3.org/2000/svg">
<path d="M23.2501 0H7.75008C6.32408 0.00167917 5.16843 1.15733 5.16675 2.58333V26.35C5.1683 27.5771 6.03145 28.6345 7.23341 28.8817V31H10.3334V28.9333H20.6667V31H23.7667V28.8817C24.9687 28.6345 25.8319 27.5771 25.8334 26.35V2.58333C25.8317 1.15733 24.6761 0.00167917 23.2501 0ZM9.30008 29.9667H8.26675V28.9333H9.30008V29.9667ZM22.7334 29.9667H21.7001V28.9333H22.7334V29.9667ZM24.8001 26.35C24.8001 27.2061 24.1061 27.9 23.2501 27.9H7.75008C6.89403 27.9 6.20008 27.2061 6.20008 26.35V2.58333C6.20008 1.72728 6.89403 1.03333 7.75008 1.03333H23.2501C24.1061 1.03333 24.8001 1.72728 24.8001 2.58333V26.35Z" fill="black"/>
<path d="M15.5001 10.3335C10.9345 10.3335 7.2334 14.0346 7.2334 18.6002C7.23882 23.1635 10.9367 26.8614 15.5001 26.8668C20.0656 26.8668 23.7667 23.1657 23.7667 18.6002C23.7667 14.0346 20.0656 10.3335 15.5001 10.3335ZM15.5001 25.8335C11.5052 25.8335 8.26673 22.595 8.26673 18.6002C8.27099 14.6071 11.507 11.3711 15.5001 11.3668C19.4949 11.3668 22.7334 14.6053 22.7334 18.6002C22.7334 22.595 19.4949 25.8335 15.5001 25.8335Z" fill="black"/>
<path d="M15.5001 12.3999C12.0759 12.3999 9.30005 15.1758 9.30005 18.5999C9.30373 22.0226 12.0774 24.7962 15.5001 24.7999C18.9242 24.7999 21.7001 22.024 21.7001 18.5999C21.7001 15.1758 18.9242 12.3999 15.5001 12.3999ZM15.5001 23.7666C12.6466 23.7666 10.3334 21.4534 10.3334 18.5999C10.3365 15.7477 12.6479 13.4363 15.5001 13.4332C18.3535 13.4332 20.6667 15.7464 20.6667 18.5999C20.6667 21.4534 18.3535 23.7666 15.5001 23.7666Z" fill="black"/>
<path d="M15.5 2.06689C13.5025 2.06689 11.8833 3.68613 11.8833 5.68356C11.8856 7.68003 13.5035 9.29797 15.5 9.30023C17.4974 9.30023 19.1166 7.681 19.1166 5.68356C19.1166 3.68613 17.4974 2.06689 15.5 2.06689ZM15.5 8.2669C14.0733 8.2669 12.9166 7.11027 12.9166 5.68356C12.9183 4.25756 14.074 3.10191 15.5 3.10023C16.9267 3.10023 18.0833 4.25685 18.0833 5.68356C18.0833 7.11027 16.9267 8.2669 15.5 8.2669Z" fill="black"/>
<path d="M15.5 4.1333C14.6439 4.1333 13.95 4.82725 13.95 5.6833C13.95 6.53935 14.6439 7.2333 15.5 7.2333C16.356 7.2333 17.05 6.53935 17.05 5.6833C17.05 4.82725 16.356 4.1333 15.5 4.1333ZM15.5 6.19997C15.2146 6.19997 14.9833 5.96863 14.9833 5.6833C14.9833 5.39797 15.2146 5.16663 15.5 5.16663C15.7853 5.16663 16.0166 5.39797 16.0166 5.6833C16.0166 5.96863 15.7853 6.19997 15.5 6.19997Z" fill="black"/>
<path d="M8.26673 2.06689H7.2334V3.10023H8.26673V2.06689Z" fill="black"/>
<path d="M23.7667 2.06689H22.7334V3.10023H23.7667V2.06689Z" fill="black"/>
<path d="M8.26673 25.8335H7.2334V26.8668H8.26673V25.8335Z" fill="black"/>
<path d="M23.7667 25.8335H22.7334V26.8668H23.7667V25.8335Z" fill="black"/>
<path d="M15.5001 16.0166C14.0734 16.0166 12.9167 17.1732 12.9167 18.5999C12.9184 20.0259 14.0741 21.1816 15.5001 21.1833C16.9268 21.1833 18.0834 20.0266 18.0834 18.5999C18.0834 17.1732 16.9268 16.0166 15.5001 16.0166ZM15.5001 20.1499C14.644 20.1499 13.9501 19.456 13.9501 18.5999C13.9501 17.7439 14.644 17.0499 15.5001 17.0499C16.3561 17.0499 17.0501 17.7439 17.0501 18.5999C17.0501 19.456 16.3561 20.1499 15.5001 20.1499Z" fill="black"/>
</svg>
